<svg xmlns="http://www.w3.org/2000/svg" width="24" height="24" viewBox="0 0 24 24">
  <g id="그룹_1756" data-name="그룹 1756" transform="translate(-1281 292)">
    <rect id="사각형_636" data-name="사각형 636" width="24" height="24" transform="translate(1281 -292)" fill="#fff" opacity="0"/>
    <path id="패스_621" data-name="패스 621" d="M-28.469,22.863a1.072,1.072,0,0,0,.787.34l.057,0a1.058,1.058,0,0,0,.8-.426L-15.875,7.918A1,1,0,0,0-16.123,6.5a1.094,1.094,0,0,0-.79-.175,1.057,1.057,0,0,0-.683.413L-27.776,20.554l-5.288-5.7a1.066,1.066,0,0,0-.728-.338,1.113,1.113,0,0,0-.764.259,1,1,0,0,0-.081,1.439Z" transform="translate(1317.905 -295.755)" fill="#f63"/>
  </g>
</svg>
