<svg xmlns="http://www.w3.org/2000/svg" width="20" height="17.351" viewBox="0 0 20 17.351">
    <path data-name="패스 446" d="M9.992 2.581c.367-.366.7-.713 1.046-1.042a5.287 5.287 0 0 1 7.437 7.514c-2.617 2.674-5.256 5.325-7.889 7.983-.421.425-.742.417-1.171-.015q-3.917-3.944-7.831-7.892a5.312 5.312 0 0 1 2.34-8.92 5.065 5.065 0 0 1 5 1.3c.359.332.695.696 1.068 1.072zm.045 13.08c.373-.366.761-.74 1.141-1.123q3.147-3.171 6.288-6.348a3.993 3.993 0 0 0-.005-5.733 3.912 3.912 0 0 0-5.628.176c-.419.427-.835.856-1.258 1.279a.707.707 0 0 1-1.153 0c-.531-.53-1.034-1.091-1.6-1.587a3.671 3.671 0 0 0-3.536-.837 3.988 3.988 0 0 0-1.785 6.675q2.512 2.562 5.058 5.091c.81.807 1.642 1.598 2.478 2.407z"/>
</svg>
