<svg width="12" height="12" viewBox="0 0 12 12" fill="none" xmlns="http://www.w3.org/2000/svg">
<g clip-path="url(#clip0_7_6)">
<path d="M5.99499 2.34401C6.21499 2.12401 6.41299 1.91601 6.62299 1.71901C7.22328 1.13909 8.02796 0.819135 8.86257 0.828522C9.69718 0.83791 10.4945 1.17588 11.0816 1.76916C11.6687 2.36244 11.9983 3.16322 11.9989 3.99788C11.9995 4.83255 11.6712 5.63383 11.085 6.22801C9.51499 7.82801 7.93099 9.42801 6.35199 11.018C6.09899 11.273 5.90699 11.268 5.65199 11.009C4.08532 9.43168 2.51866 7.85335 0.951988 6.27401C0.551114 5.88087 0.261219 5.38879 0.111648 4.8476C-0.037923 4.30641 -0.0418608 3.7353 0.100233 3.1921C0.242327 2.64889 0.525409 2.15287 0.920825 1.75423C1.31624 1.3556 1.80995 1.06851 2.35199 0.922012C2.87602 0.770865 3.43107 0.763527 3.95891 0.900766C4.48676 1.03801 4.96794 1.31476 5.35199 1.70201C5.56999 1.90101 5.77099 2.11801 5.99499 2.34401ZM6.01899 10.192C6.24299 9.97201 6.47599 9.74801 6.70299 9.51801C7.96166 8.25134 9.21932 6.98168 10.476 5.70901C10.7058 5.48537 10.8885 5.21794 11.0132 4.92252C11.1379 4.6271 11.2022 4.30968 11.2022 3.98901C11.2022 3.66834 11.1379 3.35092 11.0132 3.0555C10.8885 2.76008 10.7058 2.49265 10.476 2.26901C10.2501 2.049 9.98209 1.87678 9.68812 1.76263C9.39414 1.64849 9.08018 1.59476 8.76497 1.60465C8.44977 1.61454 8.13979 1.68786 7.85355 1.82022C7.56731 1.95258 7.31068 2.14126 7.09899 2.37501C6.84799 2.63101 6.59899 2.88901 6.34399 3.14301C6.30481 3.19832 6.25295 3.24343 6.19275 3.27456C6.13255 3.30569 6.06576 3.32194 5.99799 3.32194C5.93021 3.32194 5.86343 3.30569 5.80323 3.27456C5.74302 3.24343 5.69116 3.19832 5.65199 3.14301C5.33299 2.82501 5.03099 2.48801 4.69399 2.19101C4.41421 1.93048 4.07138 1.74736 3.69928 1.65968C3.32717 1.572 2.93865 1.5828 2.57199 1.69101C2.16708 1.80029 1.798 2.01407 1.50173 2.31093C1.20547 2.60779 0.992429 2.97729 0.883956 3.38242C0.775483 3.78755 0.775389 4.21407 0.883683 4.61925C0.991977 5.02443 1.20486 5.39402 1.50099 5.69101C2.50566 6.71568 3.51732 7.73368 4.53599 8.74501C5.02099 9.23601 5.51999 9.70601 6.01899 10.192Z" fill="white"/>
</g>
<defs>
<clipPath id="clip0_7_6">
<rect width="12" height="12" fill="white"/>
</clipPath>
</defs>
</svg>
