<svg xmlns="http://www.w3.org/2000/svg" width="12.03" height="12" viewBox="0 0 12.03 12">
  <g id="그룹_3032" data-name="그룹 3032" transform="translate(0.004)">
    <path id="사각형_792" data-name="사각형 792" d="M0,0H12V12H0Z" fill="none"/>
    <path id="패스_446" data-name="패스 446" d="M5.995,2.344c.22-.22.418-.428.628-.625a3.172,3.172,0,1,1,4.462,4.509c-1.57,1.6-3.154,3.2-4.733,4.79-.253.255-.445.25-.7-.009L.952,6.274A3.187,3.187,0,0,1,2.352.922a3.039,3.039,0,0,1,3,.78c.218.2.419.416.643.642Z" fill="#f63"/>
    <path id="패스_446-2" data-name="패스 446" d="M5.995,2.344c.22-.22.418-.428.628-.625a3.172,3.172,0,1,1,4.462,4.509c-1.57,1.6-3.154,3.2-4.733,4.79-.253.255-.445.25-.7-.009L.952,6.274A3.187,3.187,0,0,1,2.352.922a3.039,3.039,0,0,1,3,.78c.218.2.419.416.643.642Zm.024,7.848c.224-.22.457-.444.684-.674q1.888-1.9,3.773-3.809a2.4,2.4,0,0,0,0-3.44A2.347,2.347,0,0,0,7.1,2.375c-.251.256-.5.514-.755.768a.424.424,0,0,1-.692,0c-.319-.318-.621-.655-.958-.952a2.2,2.2,0,0,0-2.122-.5,2.393,2.393,0,0,0-1.071,4Q3.008,7.228,4.536,8.745c.485.491.984.961,1.483,1.447Z"/>
  </g>
</svg>
