<svg width="13" height="12" viewBox="0 0 13 12" fill="none" xmlns="http://www.w3.org/2000/svg">
<g clip-path="url(#clip0_7_14)">
<path d="M5.99899 2.344C6.21899 2.124 6.41699 1.916 6.62699 1.719C6.92178 1.42018 7.27296 1.18284 7.66016 1.02074C8.04736 0.858646 8.46288 0.775013 8.88264 0.77469C9.3024 0.774367 9.71805 0.857361 10.1055 1.01886C10.4929 1.18036 10.8445 1.41716 11.1397 1.71553C11.435 2.01389 11.6681 2.3679 11.8255 2.75701C11.983 3.14613 12.0616 3.56263 12.0569 3.98236C12.0522 4.4021 11.9642 4.81672 11.798 5.2022C11.6319 5.58768 11.3909 5.93635 11.089 6.228C9.51899 7.828 7.93499 9.428 6.35599 11.018C6.10299 11.273 5.91099 11.268 5.65599 11.009L0.955986 6.274C0.555111 5.88085 0.265217 5.38878 0.115646 4.84759C-0.0339252 4.30639 -0.0378629 3.73529 0.104231 3.19208C0.246325 2.64888 0.529407 2.15285 0.924822 1.75422C1.32024 1.35559 1.81395 1.06849 2.35599 0.921998C2.88002 0.770852 3.43507 0.763513 3.96291 0.900753C4.49075 1.03799 4.97194 1.31475 5.35599 1.702C5.57399 1.902 5.77499 2.118 5.99899 2.344Z" fill="#FF6633"/>
<path d="M5.99899 2.344C6.21899 2.124 6.41699 1.916 6.62699 1.719C6.92178 1.42018 7.27296 1.18284 7.66016 1.02074C8.04736 0.858646 8.46288 0.775013 8.88264 0.77469C9.3024 0.774367 9.71805 0.857361 10.1055 1.01886C10.4929 1.18036 10.8445 1.41716 11.1397 1.71553C11.435 2.01389 11.6681 2.3679 11.8255 2.75701C11.983 3.14613 12.0616 3.56263 12.0569 3.98236C12.0522 4.4021 11.9642 4.81672 11.798 5.2022C11.6319 5.58768 11.3909 5.93635 11.089 6.228C9.51899 7.828 7.93499 9.428 6.35599 11.018C6.10299 11.273 5.91099 11.268 5.65599 11.009L0.955986 6.274C0.555111 5.88085 0.265217 5.38878 0.115646 4.84759C-0.0339252 4.30639 -0.0378629 3.73529 0.104231 3.19208C0.246325 2.64888 0.529407 2.15285 0.924822 1.75422C1.32024 1.35559 1.81395 1.06849 2.35599 0.921998C2.88002 0.770852 3.43507 0.763513 3.96291 0.900753C4.49075 1.03799 4.97194 1.31475 5.35599 1.702C5.57399 1.902 5.77499 2.118 5.99899 2.344ZM6.02299 10.192C6.24699 9.972 6.47999 9.748 6.70699 9.518C7.96565 8.25133 9.22332 6.98167 10.48 5.709C10.7098 5.48536 10.8925 5.21793 11.0172 4.92251C11.1419 4.62709 11.2062 4.30967 11.2062 3.989C11.2062 3.66833 11.1419 3.35091 11.0172 3.05549C10.8925 2.76007 10.7098 2.49264 10.48 2.269C10.2541 2.04914 9.98617 1.87705 9.69229 1.763C9.39841 1.64894 9.08456 1.59526 8.76948 1.60515C8.4544 1.61505 8.14453 1.68831 7.85839 1.82058C7.57224 1.95285 7.31567 2.1414 7.10399 2.375C6.85299 2.631 6.60399 2.889 6.34899 3.143C6.30981 3.19831 6.25795 3.24342 6.19775 3.27455C6.13755 3.30568 6.07076 3.32193 6.00299 3.32193C5.93521 3.32193 5.86842 3.30568 5.80822 3.27455C5.74802 3.24342 5.69616 3.19831 5.65699 3.143C5.33799 2.825 5.03599 2.488 4.69899 2.191C4.41921 1.93047 4.07638 1.74734 3.70428 1.65967C3.33217 1.57199 2.94364 1.58279 2.57699 1.691C2.17208 1.80028 1.803 2.01406 1.50673 2.31092C1.21047 2.60777 0.997427 2.97728 0.888954 3.38241C0.780481 3.78754 0.780387 4.21406 0.888681 4.61924C0.996975 5.02441 1.20985 5.39401 1.50599 5.691C2.50999 6.71567 3.52132 7.73367 4.53999 8.745C5.02499 9.236 5.52399 9.706 6.02299 10.192Z" fill="white"/>
</g>
<defs>
<clipPath id="clip0_7_14">
<rect width="12.03" height="12" fill="white"/>
</clipPath>
</defs>
</svg>
