<svg xmlns="http://www.w3.org/2000/svg" width="28.002" height="28.002" viewBox="0 0 28.002 28.002">
  <g id="ic_myPageShare" transform="translate(-154.064 -733.5)">
    <g id="타원_111" data-name="타원 111" transform="translate(154.064 733.5)" fill="#f4f4f4" stroke="#f63" stroke-width="1">
      <circle cx="14.001" cy="14.001" r="14.001" stroke="none"/>
      <circle cx="14.001" cy="14.001" r="13.501" fill="none"/>
    </g>
    <g id="공유하기" transform="translate(156.566 738)">
      <path id="합치기_3" data-name="합치기 3" d="M12.769,16.384a3.646,3.646,0,0,1,.124-.94l-6.515-3.16a3.639,3.639,0,0,1-1.111.891,3.553,3.553,0,0,1-1.654.4A3.615,3.615,0,1,1,6.424,7.692l6.469-3.135a3.665,3.665,0,0,1-.124-.943,3.621,3.621,0,1,1,.716,2.156L7.063,8.884A3.65,3.65,0,0,1,7.228,9.96a3.561,3.561,0,0,1-.187,1.146l6.444,3.123a3.612,3.612,0,1,1-.716,2.155Zm1.35,0a2.263,2.263,0,1,0,2.263-2.261A2.267,2.267,0,0,0,14.119,16.384ZM1.352,9.96A2.262,2.262,0,1,0,3.613,7.7,2.266,2.266,0,0,0,1.352,9.96ZM14.119,3.614a2.263,2.263,0,1,0,2.263-2.261A2.267,2.267,0,0,0,14.119,3.614Z" fill="#f63"/>
    </g>
  </g>
</svg>
