<svg xmlns="http://www.w3.org/2000/svg" width="28.002" height="28.002" viewBox="0 0 28.002 28.002">
  <g id="ic_myPageRefresh_ac" transform="translate(-202.5 -733.5)">
    <g id="타원_170" data-name="타원 170" transform="translate(202.5 733.5)" fill="#f63" stroke="#f63" stroke-width="1">
      <circle cx="14.001" cy="14.001" r="14.001" stroke="none"/>
      <circle cx="14.001" cy="14.001" r="13.501" fill="none"/>
    </g>
    <g id="다시하기" transform="translate(206.42 737.42)">
      <path id="합치기_2" data-name="합치기 2" d="M0,8.956A9.023,9.023,0,0,1,9.067,0a9.157,9.157,0,0,1,2.675.4.672.672,0,0,1,.4.328.65.65,0,0,1,.046.505.666.666,0,0,1-.641.467.6.6,0,0,1-.2-.03,7.872,7.872,0,0,0-2.283-.336A7.682,7.682,0,0,0,1.342,8.956a7.727,7.727,0,0,0,15.452,0A7.479,7.479,0,0,0,14.853,3.9v2.22a.672.672,0,0,1-1.344,0V2.374A.294.294,0,0,1,13.52,2.3a.739.739,0,0,1,.032-.148,1.071,1.071,0,0,1,.046-.1.48.48,0,0,1,.046-.08l.005-.005A.276.276,0,0,1,13.7,1.92a.754.754,0,0,1,.1-.083l.011-.009c.013-.008.037-.024.065-.039a.664.664,0,0,1,.175-.057l0,0,.04-.008a.342.342,0,0,1,.091-.013h3.794a.667.667,0,1,1,0,1.333h-2.1a8.808,8.808,0,0,1,2.255,5.915,9.02,9.02,0,0,1-9.067,8.956A9.02,9.02,0,0,1,0,8.956Z" transform="translate(0.757 1.124)" fill="#fff"/>
      <rect id="사각형_585" data-name="사각형 585" width="20.161" height="20.161" fill="none"/>
    </g>
  </g>
</svg>
