<svg width="108" height="108" viewBox="0 0 108 108" fill="none" xmlns="http://www.w3.org/2000/svg">
<g clip-path="url(#clip0_8_19)">
<rect width="108" height="108" fill="#F4F4F4"/>
<path d="M11.105 111.442C11.628 96.112 17.819 83.792 30.734 75.635C46.253 65.835 62.322 65.929 77.725 75.935C90.349 84.135 96.369 96.348 96.895 111.443L11.105 111.442Z" fill="#BCBCBC"/>
<path d="M54.104 18.232C58.8719 18.2513 63.5263 19.6884 67.475 22.3606C71.4237 25.0327 74.4883 28.8191 76.2788 33.238C78.0694 37.6569 78.505 42.5086 77.5302 47.1758C76.5555 51.843 74.2144 56.1147 70.8048 59.4475C67.3952 62.7804 63.0713 65.0236 58.3831 65.8919C53.695 66.7602 48.8545 66.2143 44.4775 64.3236C40.1005 62.4329 36.3848 59.283 33.8032 55.2744C31.2216 51.2659 29.8908 46.58 29.98 41.813C30.03 28.919 41.01 18.185 54.104 18.232Z" fill="#BCBCBC"/>
</g>
<defs>
<clipPath id="clip0_8_19">
<rect width="108" height="108" fill="white"/>
</clipPath>
</defs>
</svg>
