<svg id="알람" xmlns="http://www.w3.org/2000/svg" width="20" height="20" viewBox="0 0 20 20">
  <g id="그룹_2393" data-name="그룹 2393" transform="translate(-194 -732)">
    <path id="패스_701" data-name="패스 701" d="M-47.2,45.338a2.53,2.53,0,0,1-1.273-.345,2.551,2.551,0,0,1-.925-.925.415.415,0,0,1,.151-.568.416.416,0,0,1,.568.151,1.714,1.714,0,0,0,.623.623,1.7,1.7,0,0,0,1.3.174,1.7,1.7,0,0,0,1.042-.8.415.415,0,0,1,.568-.151.415.415,0,0,1,.151.568,2.525,2.525,0,0,1-1.548,1.183A2.549,2.549,0,0,1-47.2,45.338Z" transform="translate(251.018 706.662)" fill="#151515"/>
    <path id="패스_700" data-name="패스 700" d="M-56.172.834A5.6,5.6,0,0,1-50.6,6.325c0,.058,0,.116,0,.187,0,4.519,1.119,7.231,2.171,8.782H-64.117c1.051-1.55,2.171-4.264,2.17-8.795q0-.087,0-.174A5.6,5.6,0,0,1-56.375.834h.2m0-.834h-.2a6.409,6.409,0,0,0-6.4,6.312c0,.066,0,.133,0,.2,0,4.847-1.346,7.451-2.293,8.682a.577.577,0,0,0,.453.933h16.693a.577.577,0,0,0,.453-.933c-.947-1.232-2.293-3.835-2.293-8.682,0-.067,0-.133,0-.2A6.41,6.41,0,0,0-56.172,0Z" transform="translate(260.195 732)" fill="#151515"/>
  </g>
  <rect id="사각형_593" data-name="사각형 593" width="20" height="20" fill="none"/>
</svg>
