<svg xmlns="http://www.w3.org/2000/svg" xmlns:xlink="http://www.w3.org/1999/xlink" width="578" height="120" viewBox="0 0 578 120">
  <defs>
    <clipPath id="clip-path">
      <rect id="사각형_785" data-name="사각형 785" width="576" height="118" transform="translate(385 1667.427)" fill="#fff" stroke="#707070" stroke-width="1"/>
    </clipPath>
  </defs>
  <g id="img_materModalLabel_beige" transform="translate(-134 -1017.427)">
    <path id="패스_834" data-name="패스 834" d="M0,0H578V120H0Z" transform="translate(134 1017.427)" fill="#cfc1b4"/>
    <g id="마스크_그룹_166" data-name="마스크 그룹 166" transform="translate(-250 -649)" clip-path="url(#clip-path)">
      <g id="그룹_2940" data-name="그룹 2940" transform="translate(764.021 1667.427)">
        <g id="그룹_2934" data-name="그룹 2934" transform="translate(-29.022 60.295)">
          <line id="선_732" data-name="선 732" x2="15.421" y2="2.1" transform="translate(2.704 41.383)" fill="none" stroke="#fff" stroke-linecap="round" stroke-miterlimit="10" stroke-width="1"/>
          <path id="패스_850" data-name="패스 850" d="M3632.2-1029.9l19.337,61.811-28.3,6.96-28.3,6.96L3583.4-1017.9l3.029,16.743-17.265-2.9a2.006,2.006,0,0,1-1.6-2.491l5.578-21.046a15.138,15.138,0,0,1,5.961-8.529l6.434-4.495a5.945,5.945,0,0,1,3.156-1.07,66.394,66.394,0,0,0,14.227-2.044,66.405,66.405,0,0,0,13.554-4.787,5.95,5.95,0,0,1,3.292-.515l7.784,1a15.136,15.136,0,0,1,9.238,4.792l14.7,16.058a2.007,2.007,0,0,1-.26,2.948l-13.951,10.575" transform="translate(-3567.498 1049.084)" fill="none" stroke="#fff" stroke-linecap="round" stroke-linejoin="round" stroke-width="1"/>
          <path id="패스_851" data-name="패스 851" d="M3617.34-1045.7c-.519,5.459-6.3,10.848-14.3,12.815s-15.616-.13-18.607-4.725" transform="translate(-3564.82 1049.619)" fill="none" stroke="#fff" stroke-linecap="round" stroke-miterlimit="10" stroke-width="1"/>
          <path id="패스_852" data-name="패스 852" d="M3613.567-1048.3c-.237,5.389-4.943,10.515-11.659,12.166s-13.263-.708-15.972-5.372" transform="translate(-3564.584 1049.208)" fill="none" stroke="#fff" stroke-linecap="round" stroke-miterlimit="10" stroke-width="1"/>
          <line id="선_733" data-name="선 733" x1="12.689" y2="9.012" transform="translate(68.434 22.102)" fill="none" stroke="#fff" stroke-linecap="round" stroke-miterlimit="10" stroke-width="1"/>
          <line id="선_734" data-name="선 734" y1="12.03" x2="48.925" transform="translate(30.062 77.018)" fill="none" stroke="#fff" stroke-linecap="round" stroke-linejoin="round" stroke-width="1"/>
        </g>
        <g id="그룹_2941" data-name="그룹 2941" transform="translate(-277.108 -25.427)">
          <line id="선_732-2" data-name="선 732" x2="15.421" y2="2.1" transform="translate(2.704 41.383)" fill="none" stroke="#fff" stroke-linecap="round" stroke-miterlimit="10" stroke-width="1"/>
          <path id="패스_850-2" data-name="패스 850" d="M3632.2-1029.9l19.337,61.811-28.3,6.96-28.3,6.96L3583.4-1017.9l3.029,16.743-17.265-2.9a2.006,2.006,0,0,1-1.6-2.491l5.578-21.046a15.138,15.138,0,0,1,5.961-8.529l6.434-4.495a5.945,5.945,0,0,1,3.156-1.07,66.394,66.394,0,0,0,14.227-2.044,66.405,66.405,0,0,0,13.554-4.787,5.95,5.95,0,0,1,3.292-.515l7.784,1a15.136,15.136,0,0,1,9.238,4.792l14.7,16.058a2.007,2.007,0,0,1-.26,2.948l-13.951,10.575" transform="translate(-3567.498 1049.084)" fill="none" stroke="#fff" stroke-linecap="round" stroke-linejoin="round" stroke-width="1"/>
          <path id="패스_851-2" data-name="패스 851" d="M3617.34-1045.7c-.519,5.459-6.3,10.848-14.3,12.815s-15.616-.13-18.607-4.725" transform="translate(-3564.82 1049.619)" fill="none" stroke="#fff" stroke-linecap="round" stroke-miterlimit="10" stroke-width="1"/>
          <path id="패스_852-2" data-name="패스 852" d="M3613.567-1048.3c-.237,5.389-4.943,10.515-11.659,12.166s-13.263-.708-15.972-5.372" transform="translate(-3564.584 1049.208)" fill="none" stroke="#fff" stroke-linecap="round" stroke-miterlimit="10" stroke-width="1"/>
          <line id="선_733-2" data-name="선 733" x1="12.689" y2="9.012" transform="translate(68.434 22.102)" fill="none" stroke="#fff" stroke-linecap="round" stroke-miterlimit="10" stroke-width="1"/>
          <line id="선_734-2" data-name="선 734" y1="12.03" x2="48.925" transform="translate(30.062 77.018)" fill="none" stroke="#fff" stroke-linecap="round" stroke-linejoin="round" stroke-width="1"/>
        </g>
        <g id="그룹_2936" data-name="그룹 2936" transform="translate(-369 22.903)">
          <g id="그룹_2935" data-name="그룹 2935" transform="translate(0 5.727)">
            <line id="선_735" data-name="선 735" x2="14.503" y2="7.905" transform="translate(3.475 25.527)" fill="none" stroke="#fff" stroke-linecap="round" stroke-miterlimit="10" stroke-width="1"/>
            <path id="패스_853" data-name="패스 853" d="M3543.1-1079.819l7.344,3.932a15.971,15.971,0,0,1,7.32,8.106l8.387,20.944a2.028,2.028,0,0,1-1.4,2.712l-17.947,4.746" transform="translate(-3474.403 1084.892)" fill="none" stroke="#fff" stroke-linecap="round" stroke-linejoin="round" stroke-width="1"/>
            <path id="패스_854" data-name="패스 854" d="M3557.416-1056.119l-4.295,63.31-30.8-4.194-30.8-4.2,12.792-62.155-3.469,17.128-16.025-9.373a2.028,2.028,0,0,1-.621-2.986l13.683-17.939a15.977,15.977,0,0,1,9.222-5.853l8.129-1.824" transform="translate(-3483.778 1084.2)" fill="none" stroke="#fff" stroke-linecap="round" stroke-linejoin="round" stroke-width="1"/>
            <line id="선_736" data-name="선 736" x1="16.089" y2="3.739" transform="translate(72.73 37.15)" fill="none" stroke="#fff" stroke-linecap="round" stroke-miterlimit="10" stroke-width="1"/>
            <line id="선_737" data-name="선 737" x2="53.245" y2="7.252" transform="translate(12.619 78.414)" fill="none" stroke="#fff" stroke-linecap="round" stroke-linejoin="round" stroke-width="1"/>
          </g>
          <path id="패스_855" data-name="패스 855" d="M3547.336-1079.857l-2.64-4.557a3.06,3.06,0,0,0-2.643-1.444c-9.624-.217-11.776-.714-11.776-.714s-2.207-.095-11.539-2.461a3.059,3.059,0,0,0-2.932.684l-3.764,3.685a2.54,2.54,0,0,0-.6,2.712,32.159,32.159,0,0,0,5.577,9.695,3.814,3.814,0,0,0,4.337.96l2.968-1.259s2.888-1.359,4.208-1.179,3.739,2.262,3.739,2.262l2.523,2.007a3.815,3.815,0,0,0,4.437.235,32.207,32.207,0,0,0,7.966-7.851A2.539,2.539,0,0,0,3547.336-1079.857Z" transform="translate(-3479.432 1089.145)" fill="none" stroke="#fff" stroke-linecap="round" stroke-linejoin="round" stroke-width="1"/>
          <path id="패스_856" data-name="패스 856" d="M3517.245-1087.182a28.387,28.387,0,0,0,8.9,9.841,4.213,4.213,0,0,0,3.756.509c2.774-.944,7.791-3.1,11.065-7.12" transform="translate(-3478.489 1089.455)" fill="none" stroke="#fff" stroke-linecap="round" stroke-linejoin="round" stroke-width="1"/>
          <path id="패스_857" data-name="패스 857" d="M3530.459-1073.764l-1.262,9.27a1.479,1.479,0,0,1-1.665,1.266l-4.661-.635a1.479,1.479,0,0,1-1.265-1.665l1.263-9.27" transform="translate(-3477.802 1091.412)" fill="none" stroke="#fff" stroke-linecap="round" stroke-linejoin="round" stroke-width="1"/>
          <circle id="타원_186" data-name="타원 186" cx="1.241" cy="1.241" r="1.241" transform="translate(47.215 18.872)" fill="#fff"/>
        </g>
        <g id="그룹_2937" data-name="그룹 2937" transform="translate(44.739 11)">
          <rect id="사각형_786" data-name="사각형 786" width="55.004" height="5.636" transform="matrix(0.963, 0.269, -0.269, 0.963, 28.592, 0)" fill="none" stroke="#fff" stroke-linecap="round" stroke-linejoin="round" stroke-width="1"/>
          <path id="패스_858" data-name="패스 858" d="M3631.193-1032.4c2.994-8.772,10.2-26.141,27.079-54.565" transform="translate(-3631.193 1092.393)" fill="none" stroke="#fff" stroke-linecap="round" stroke-linejoin="round" stroke-width="1"/>
          <path id="패스_859" data-name="패스 859" d="M3709.811-1074.2c-.4,51.378-6.988,67.814-6.988,67.814l-35.465-5.482,7.636-39.856-.023-.006-14.084,38.058-20.4-8.4" transform="translate(-3629.725 1094.409)" fill="none" stroke="#fff" stroke-linecap="round" stroke-linejoin="round" stroke-width="1"/>
          <line id="선_738" data-name="선 738" x2="35.848" y2="5.458" transform="translate(38.251 79.313)" fill="none" stroke="#fff" stroke-linecap="round" stroke-linejoin="round" stroke-width="1"/>
          <line id="선_739" data-name="선 739" x1="26.017" y1="10.775" transform="translate(6.281 66.879)" fill="none" stroke="#fff" stroke-linecap="round" stroke-linejoin="round" stroke-width="1"/>
          <path id="패스_860" data-name="패스 860" d="M3695.893-1034.824a92.74,92.74,0,0,1-2.58,15.575" transform="translate(-3621.376 1100.633)" fill="none" stroke="#fff" stroke-linecap="round" stroke-linejoin="round" stroke-width="1"/>
          <rect id="사각형_787" data-name="사각형 787" width="6.315" height="5.636" transform="matrix(0.963, 0.269, -0.269, 0.963, 52.043, 6.537)" fill="none" stroke="#fff" stroke-linecap="round" stroke-linejoin="round" stroke-width="1"/>
        </g>
        <g id="그룹_2938" data-name="그룹 2938" transform="translate(148.083 33.552)">
          <rect id="사각형_788" data-name="사각형 788" width="104.218" height="6.563" transform="matrix(0.921, 0.391, -0.391, 0.921, 2.564, 11.935)" fill="none" stroke="#fff" stroke-linecap="round" stroke-linejoin="round" stroke-width="1"/>
          <path id="패스_861" data-name="패스 861" d="M3710.162-1050.743l2.65-6.247a9.329,9.329,0,0,1,12.232-4.944l78.761,33.424a9.329,9.329,0,0,1,4.943,12.232l-2.651,6.248" transform="translate(-3707.598 1062.678)" fill="none" stroke="#fff" stroke-linecap="round" stroke-linejoin="round" stroke-width="1"/>
          <path id="패스_862" data-name="패스 862" d="M3754.621-1047.161l4.226-9.958a1.242,1.242,0,0,1,1.628-.658l3.271,1.388a1.241,1.241,0,0,1,.659,1.628l-4.227,9.958" transform="translate(-3700.572 1063.437)" fill="none" stroke="#fff" stroke-linecap="round" stroke-linejoin="round" stroke-width="1"/>
        </g>
        <path id="패스_863" data-name="패스 863" d="M3703.987-973.543v-28.672a5.888,5.888,0,0,1,5.888-5.889h67.446" transform="translate(-3560.49 1104.855)" fill="none" stroke="#fff" stroke-linecap="round" stroke-linejoin="round" stroke-width="1"/>
        <line id="선_740" data-name="선 740" y2="34.561" transform="translate(250.153 96.752)" fill="none" stroke="#fff" stroke-linecap="round" stroke-linejoin="round" stroke-width="1"/>
        <line id="선_741" data-name="선 741" x2="66.185" transform="translate(150.647 103.549)" fill="none" stroke="#fff" stroke-linecap="round" stroke-linejoin="round" stroke-width="1"/>
      </g>
    </g>
  </g>
</svg>
