<svg xmlns="http://www.w3.org/2000/svg" xmlns:xlink="http://www.w3.org/1999/xlink" width="578" height="120" viewBox="0 0 578 120">
  <defs>
    <clipPath id="clip-path">
      <rect id="사각형_774" data-name="사각형 774" width="578" height="118" transform="translate(385 1667.427)" fill="#fff"/>
    </clipPath>
  </defs>
  <g id="img_materModalLabel_oran" transform="translate(-171 -451.427)">
    <rect id="사각형_773" data-name="사각형 773" width="578" height="120" transform="translate(171 451.427)" fill="#e07a5f"/>
    <g id="마스크_그룹_163" data-name="마스크 그룹 163" transform="translate(-214 -1215)" clip-path="url(#clip-path)">
      <g id="그룹_2919" data-name="그룹 2919" transform="translate(603 1675.783)">
        <g id="그룹_2803" data-name="그룹 2803" transform="translate(242.12 69.183)">
          <line id="선_676" data-name="선 676" x1="1.374" y2="1.374" transform="translate(4.101)" fill="none" stroke="#fff" stroke-linecap="round" stroke-miterlimit="10" stroke-width="0.5"/>
          <line id="선_677" data-name="선 677" x1="1.374" y2="1.374" transform="translate(0 4.101)" fill="none" stroke="#fff" stroke-linecap="round" stroke-miterlimit="10" stroke-width="0.5"/>
          <line id="선_678" data-name="선 678" x1="1.374" y1="1.374" transform="translate(4.101 4.101)" fill="none" stroke="#fff" stroke-linecap="round" stroke-miterlimit="10" stroke-width="0.5"/>
          <line id="선_679" data-name="선 679" x1="1.374" y1="1.374" fill="none" stroke="#fff" stroke-linecap="round" stroke-miterlimit="10" stroke-width="0.5"/>
        </g>
        <g id="그룹_2804" data-name="그룹 2804" transform="translate(205.641 57.059)">
          <line id="선_680" data-name="선 680" x1="1.374" y2="1.374" transform="translate(4.101)" fill="none" stroke="#fff" stroke-linecap="round" stroke-miterlimit="10" stroke-width="0.5"/>
          <line id="선_681" data-name="선 681" x1="1.374" y2="1.374" transform="translate(0 4.101)" fill="none" stroke="#fff" stroke-linecap="round" stroke-miterlimit="10" stroke-width="0.5"/>
          <line id="선_682" data-name="선 682" x1="1.374" y1="1.374" transform="translate(4.101 4.101)" fill="none" stroke="#fff" stroke-linecap="round" stroke-miterlimit="10" stroke-width="0.5"/>
          <line id="선_683" data-name="선 683" x1="1.374" y1="1.374" fill="none" stroke="#fff" stroke-linecap="round" stroke-miterlimit="10" stroke-width="0.5"/>
        </g>
        <path id="패스_727" data-name="패스 727" d="M2873.417-1577.414v2a4.946,4.946,0,0,0,4.945,4.945h123.416a6.33,6.33,0,0,0,6.322-6.635l-4.471-92.653a7.3,7.3,0,0,0-7.293-6.949H2881.392s-6.266,0-6.266,6.266c0,0-.529,37.731,5.7,38.165h23.9a3.157,3.157,0,0,0,2.868-1.838l4.676-10.167a3.842,3.842,0,0,1,3.49-2.235h31.427a3.834,3.834,0,0,1,3.693,2.781c1.937,6.771,6.549,23.461,4.97,39.259" transform="translate(-2667.777 1684.792)" fill="none" stroke="#fff" stroke-miterlimit="10" stroke-width="1"/>
        <path id="패스_728" data-name="패스 728" d="M2910.49-1597.053h80.971a1.647,1.647,0,0,1,1.646,1.646v21.388a4.024,4.024,0,0,1-4.024,4.024H2871.711a4.024,4.024,0,0,1-4.024-4.024v-21.388a1.646,1.646,0,0,1,1.646-1.646h8.819" transform="translate(-2667.244 1677.373)" fill="none" stroke="#fff" stroke-miterlimit="10" stroke-width="1"/>
        <line id="선_684" data-name="선 684" y2="27.057" transform="translate(252.765 80.32)" fill="none" stroke="#fff" stroke-miterlimit="10" stroke-width="1"/>
        <path id="패스_729" data-name="패스 729" d="M2898.49-1627.707v18.306a1.72,1.72,0,0,1-1.719,1.719h0a1.719,1.719,0,0,1-1.719-1.719v-18.306" transform="translate(-2669.792 1680.229)" fill="none" stroke="#fff" stroke-miterlimit="10" stroke-width="1"/>
        <line id="선_685" data-name="선 685" x2="5.695" transform="translate(228.697 61.41)" fill="none" stroke="#fff" stroke-linecap="round" stroke-miterlimit="10" stroke-width="1"/>
        <line id="선_686" data-name="선 686" y2="4.509" transform="translate(234.392 59.155)" fill="none" stroke="#fff" stroke-linecap="round" stroke-miterlimit="10" stroke-width="1"/>
        <path id="패스_730" data-name="패스 730" d="M2894.537-1610.57H2892.9a1.121,1.121,0,0,0-1.121,1.121h0a1.121,1.121,0,0,0,1.121,1.121h1.633" transform="translate(-2669.488 1678.633)" fill="none" stroke="#fff" stroke-linecap="round" stroke-miterlimit="10" stroke-width="1"/>
        <line id="선_687" data-name="선 687" y2="5.033" transform="translate(226.979 72.547)" fill="none" stroke="#fff" stroke-linecap="round" stroke-miterlimit="10" stroke-width="1"/>
        <path id="패스_731" data-name="패스 731" d="M2886.386-1584.361l4.151-2.195,4.152,2.195,4.156-2.195,4.158,2.195,4.158-2.195,4.024,1.832v-14.637H2878.9v14.568l3.336-1.763Z" transform="translate(-2668.287 1677.588)" fill="none" stroke="#fff" stroke-linecap="round" stroke-linejoin="round" stroke-width="1"/>
        <line id="선_688" data-name="선 688" y2="44.432" transform="translate(228.697 8.089)" fill="none" stroke="#fff" stroke-linecap="round" stroke-linejoin="round" stroke-width="1"/>
        <path id="패스_732" data-name="패스 732" d="M3017.078-1667.5h9.081v23.353h-7.92" transform="translate(-2681.159 1683.936)" fill="none" stroke="#fff" stroke-linecap="round" stroke-linejoin="round" stroke-width="1"/>
        <ellipse id="타원_173" data-name="타원 173" cx="9.969" cy="9.969" rx="9.969" ry="9.969" transform="translate(304.226 17.678)" fill="none" stroke="#fff" stroke-linecap="round" stroke-linejoin="round" stroke-width="1"/>
        <ellipse id="타원_174" data-name="타원 174" cx="7.336" cy="7.336" rx="7.336" ry="7.336" transform="translate(306.859 20.311)" fill="none" stroke="#fff" stroke-linecap="round" stroke-linejoin="round" stroke-width="1"/>
        <ellipse id="타원_175" data-name="타원 175" cx="9.969" cy="9.969" rx="9.969" ry="9.969" transform="translate(304.226 43.727)" fill="none" stroke="#fff" stroke-linecap="round" stroke-linejoin="round" stroke-width="1"/>
        <ellipse id="타원_176" data-name="타원 176" cx="7.336" cy="7.336" rx="7.336" ry="7.336" transform="translate(306.859 46.36)" fill="none" stroke="#fff" stroke-linecap="round" stroke-linejoin="round" stroke-width="1"/>
        <path id="패스_733" data-name="패스 733" d="M2898.843-1661.129h49.211a4.754,4.754,0,0,0,4.754-4.754V-1676.7" transform="translate(-2670.145 1684.792)" fill="none" stroke="#fff" stroke-linecap="round" stroke-linejoin="round" stroke-width="1"/>
        <g id="그룹_2805" data-name="그룹 2805" transform="translate(-82.614 41.226)">
          <path id="패스_734" data-name="패스 734" d="M2834.277-1588.785l-14.9,4.539a1.758,1.758,0,0,1-2.227-1.291l-6.006-26.276a1.758,1.758,0,0,1,1.2-2.075l11.235-3.423a1.758,1.758,0,0,1,2.154,1.052l9.667,25.161A1.758,1.758,0,0,1,2834.277-1588.785Z" transform="translate(-2811.104 1619.109)" fill="none" stroke="#fff" stroke-miterlimit="10" stroke-width="1"/>
          <line id="선_689" data-name="선 689" x2="9.449" y2="2.243" transform="translate(6.361 3.663)" fill="none" stroke="#fff" stroke-miterlimit="10" stroke-width="1"/>
          <line id="선_690" data-name="선 690" x2="17.304" y2="4.107" transform="translate(0.177 6.15)" fill="none" stroke="#fff" stroke-miterlimit="10" stroke-width="1"/>
          <line id="선_691" data-name="선 691" x2="18.729" y2="4.446" transform="translate(0.424 10.163)" fill="none" stroke="#fff" stroke-miterlimit="10" stroke-width="1"/>
          <line id="선_692" data-name="선 692" x2="19.153" y2="4.546" transform="translate(1.671 14.414)" fill="none" stroke="#fff" stroke-miterlimit="10" stroke-width="1"/>
          <line id="선_693" data-name="선 693" x2="19.746" y2="4.687" transform="translate(2.75 18.625)" fill="none" stroke="#fff" stroke-miterlimit="10" stroke-width="1"/>
          <line id="선_694" data-name="선 694" x2="20.585" y2="4.886" transform="translate(3.583 22.777)" fill="none" stroke="#fff" stroke-miterlimit="10" stroke-width="1"/>
          <line id="선_695" data-name="선 695" x2="16.685" y2="3.96" transform="translate(4.539 26.959)" fill="none" stroke="#fff" stroke-miterlimit="10" stroke-width="1"/>
          <rect id="사각형_741" data-name="사각형 741" width="11.107" height="2.552" rx="0.38" transform="translate(10.792 34.244) rotate(-16.945)" fill="none" stroke="#fff" stroke-miterlimit="10" stroke-width="1"/>
          <rect id="사각형_742" data-name="사각형 742" width="6.627" height="2.552" rx="0.38" transform="translate(3.288 1.931) rotate(-16.945)" fill="none" stroke="#fff" stroke-miterlimit="10" stroke-width="1"/>
        </g>
        <g id="그룹_2806" data-name="그룹 2806" transform="translate(-123.934 61.208)">
          <path id="패스_735" data-name="패스 735" d="M2789.358-1566.064l-15.115-3.742a1.758,1.758,0,0,1-1.251-2.249l8.318-25.641a1.757,1.757,0,0,1,2.094-1.164l11.4,2.822a1.758,1.758,0,0,1,1.31,2.007l-4.6,26.559A1.76,1.76,0,0,1,2789.358-1566.064Z" transform="translate(-2772.906 1600.637)" fill="none" stroke="#fff" stroke-miterlimit="10" stroke-width="1"/>
          <line id="선_696" data-name="선 696" x2="6.962" y2="6.77" transform="translate(15.689 3.062)" fill="none" stroke="#fff" stroke-miterlimit="10" stroke-width="1"/>
          <line id="선_697" data-name="선 697" x2="12.75" y2="12.399" transform="translate(9.105 2.027)" fill="none" stroke="#fff" stroke-miterlimit="10" stroke-width="1"/>
          <line id="선_698" data-name="선 698" x2="13.8" y2="13.42" transform="translate(7.259 5.599)" fill="none" stroke="#fff" stroke-miterlimit="10" stroke-width="1"/>
          <line id="선_699" data-name="선 699" x2="14.113" y2="13.724" transform="translate(6.15 9.888)" fill="none" stroke="#fff" stroke-miterlimit="10" stroke-width="1"/>
          <line id="선_700" data-name="선 700" x2="14.55" y2="14.149" transform="translate(4.918 14.056)" fill="none" stroke="#fff" stroke-miterlimit="10" stroke-width="1"/>
          <line id="선_701" data-name="선 701" x2="15.168" y2="14.75" transform="translate(3.503 18.048)" fill="none" stroke="#fff" stroke-miterlimit="10" stroke-width="1"/>
          <line id="선_702" data-name="선 702" x2="12.294" y2="11.955" transform="translate(2.18 22.128)" fill="none" stroke="#fff" stroke-miterlimit="10" stroke-width="1"/>
          <rect id="사각형_743" data-name="사각형 743" width="11.107" height="2.552" rx="0.38" transform="translate(3.813 31.589) rotate(13.902)" fill="none" stroke="#fff" stroke-miterlimit="10" stroke-width="1"/>
          <rect id="사각형_744" data-name="사각형 744" width="6.627" height="2.552" rx="0.38" transform="translate(13.939 0) rotate(13.902)" fill="none" stroke="#fff" stroke-miterlimit="10" stroke-width="1"/>
        </g>
        <path id="패스_736" data-name="패스 736" d="M2889.385-1663.227c-4.29,4.389-10.3,6.614-16.218,8.237-20.509,5.628-42.151,5.588-63.356,3.947s-42.3-4.844-63.557-5.407c-11.042-.292-20.877,4.416-29.406,11.435-9,7.407-12.659,22.374-11.16,33.087,2.05,14.65,12.676,21.156,26.339,25.929,15.289,5.343,31.88,6.506,47.931,5.055" transform="translate(-2902.362 1656.588)" fill="none" stroke="#fff" stroke-linecap="round" stroke-miterlimit="10" stroke-width="0.5" stroke-dasharray="3"/>
      </g>
    </g>
  </g>
</svg>
