<svg xmlns="http://www.w3.org/2000/svg" xmlns:xlink="http://www.w3.org/1999/xlink" width="578" height="120" viewBox="0 0 578 120">
  <defs>
    <clipPath id="clip-path">
      <rect id="사각형_780" data-name="사각형 780" width="576" height="118" fill="#fff" stroke="#707070" stroke-width="1"/>
    </clipPath>
  </defs>
  <g id="img_materModalLabel_blue" transform="translate(-171 -629.427)">
    <g id="그룹_2944" data-name="그룹 2944" transform="translate(38 -179)">
      <rect id="사각형_775" data-name="사각형 775" width="578" height="120" transform="translate(133 808.427)" fill="#6464a0"/>
      <g id="마스크_그룹_164" data-name="마스크 그룹 164" transform="translate(134 809.427)" clip-path="url(#clip-path)">
        <g id="그룹_2925" data-name="그룹 2925" transform="translate(20.5 8.5)">
          <ellipse id="타원_93" data-name="타원 93" cx="68.498" cy="68.183" rx="68.498" ry="68.183" transform="translate(443.5 26.585)" fill="none" stroke="#fff" stroke-miterlimit="10" stroke-width="1"/>
          <g id="그룹_1452" data-name="그룹 1452" transform="translate(458.822 28.66)">
            <path id="패스_430" data-name="패스 430" d="M2269.094-1112.309c-1.127,1.958-4.163,2.014-5.456,3.867a3.388,3.388,0,0,0,1.4,4.763,3.984,3.984,0,0,0,4.906-1.624c.828-1.4,1.349-3.61,2.971-3.453,1.046.1,1.619,1.233,2,2.208q.658,1.7,1.316,3.4c.785,2.027,1.379,4.757-.4,6.008a5.028,5.028,0,0,1-3.365.485l-6.875-.617c-2.323,1.7-1.436,5.291-.319,7.935a4.483,4.483,0,0,0,1.364,2.05,1.559,1.559,0,0,0,2.2-.289,5.65,5.65,0,0,0,.292-1.3c.489-1.814,3.175-1.792,4.8-.842s3.143,2.463,5.026,2.353c2.015-.119,3.438-2.14,3.789-4.12.136-.765.283-1.712,1.021-1.963a1.837,1.837,0,0,1,1.463.339,13.271,13.271,0,0,1,6.42,10.769,4.5,4.5,0,0,0,.454,2.388,3.837,3.837,0,0,0,2.268,1.281,21.8,21.8,0,0,0,7.875,1.155c2.966-.271,5.7-1.649,8.35-3a16.1,16.1,0,0,0,2.672-1.633,68.583,68.583,0,0,0-44.02-34.766,16.744,16.744,0,0,1,.262,1.724A4.84,4.84,0,0,1,2269.094-1112.309Z" transform="translate(-2199.294 1116.914)" fill="none" stroke="#fff" stroke-miterlimit="10" stroke-width="1"/>
            <path id="패스_431" data-name="패스 431" d="M2180.223-1093.26c-.283,2.628-1.37,5.091-2.187,7.606a75.854,75.854,0,0,0-2.181,9.33c-1.06,5.587-2.1,11.505-.1,16.834.666,1.782,1.669,3.49,1.808,5.387.094,1.279-.216,2.572-.025,3.84a5.167,5.167,0,0,0,6,4.084,5.141,5.141,0,0,0,3.654-6.254c-.543-1.779-2.022-3.087-3.125-4.588s-1.827-3.647-.743-5.161c1.434-2.006,4.812-1.371,6.588-3.086,1.794-1.733,1.025-4.841,2.278-6.995,1.266-2.175,4.11-2.719,6.6-3.161s5.342-1.33,6.175-3.7a22.427,22.427,0,0,0,.455-3.333,36.017,36.017,0,0,1,1.349-3.778,3.725,3.725,0,0,0-.573-3.769c-1.23-1.182-3.214-.731-4.923-.676s-3.9-1.159-3.339-2.766a2.935,2.935,0,0,1,1.176-1.3,24.545,24.545,0,0,1,14.941-4.5c.993-1.958-1.3-4.219-3.5-4.27s-4.188,1.194-6.235,2a12.825,12.825,0,0,1-9,.375c-1.576-.574-2.995-1.524-4.588-2.046-.434-.141-.878-.248-1.324-.35a68.8,68.8,0,0,0-9.161,7.391A14.544,14.544,0,0,1,2180.223-1093.26Z" transform="translate(-2174.619 1113.14)" fill="none" stroke="#fff" stroke-miterlimit="10" stroke-width="1"/>
          </g>
          <path id="패스_432" data-name="패스 432" d="M2254.446-1055.812l6.238,2.03c2.517.819,5.6,2.519,5.094,5.106-.241,1.241-1.282,2.141-2.007,3.179a6.922,6.922,0,0,0-.923,5.907c.363,1.177,1.053,2.32.911,3.542-.227,1.945-2.324,2.982-3.955,4.076-3.273,2.193-5.39,5.718-8.36,8.3s-7.724,4.066-10.742,1.536c-2.942-2.465-2.452-6.975-2.46-10.8a4.606,4.606,0,0,0-.589-2.65c-1.095-1.584-3.5-1.417-5.155-2.408-2.2-1.317-2.582-4.273-2.731-6.823-.194-3.3-.253-6.99,1.99-9.424a14.05,14.05,0,0,0,2.1-2.241c1.025-1.777.206-4.053.689-6.044a4.965,4.965,0,0,1,7.4-2.661,8.744,8.744,0,0,0,1.3.956c1.176.573,2.573.053,3.88.122a4.389,4.389,0,0,1,4.009,4.408C2251.046-1057.688,2252.524-1056.437,2254.446-1055.812Z" transform="translate(-1731.146 1131.211)" fill="none" stroke="#fff" stroke-linejoin="round" stroke-width="1"/>
          <g id="그룹_1453" data-name="그룹 1453" transform="translate(423.5)">
            <line id="선_597" data-name="선 597" x1="1.821" y2="1.812" transform="translate(5.435)" fill="none" stroke="#fff" stroke-linecap="round" stroke-miterlimit="10" stroke-width="0.5"/>
            <line id="선_598" data-name="선 598" x1="1.821" y2="1.812" transform="translate(0 5.41)" fill="none" stroke="#fff" stroke-linecap="round" stroke-miterlimit="10" stroke-width="0.5"/>
            <line id="선_599" data-name="선 599" x1="1.821" y1="1.812" transform="translate(5.435 5.41)" fill="none" stroke="#fff" stroke-linecap="round" stroke-miterlimit="10" stroke-width="0.5"/>
            <line id="선_600" data-name="선 600" x1="1.821" y1="1.812" fill="none" stroke="#fff" stroke-linecap="round" stroke-miterlimit="10" stroke-width="0.5"/>
          </g>
          <g id="그룹_1454" data-name="그룹 1454" transform="translate(447.51 15.336)">
            <line id="선_601" data-name="선 601" x1="1.821" y2="1.812" transform="translate(5.434)" fill="none" stroke="#fff" stroke-linecap="round" stroke-miterlimit="10" stroke-width="0.5"/>
            <line id="선_602" data-name="선 602" x1="1.821" y2="1.812" transform="translate(0 5.41)" fill="none" stroke="#fff" stroke-linecap="round" stroke-miterlimit="10" stroke-width="0.5"/>
            <line id="선_603" data-name="선 603" x1="1.821" y1="1.812" transform="translate(5.434 5.41)" fill="none" stroke="#fff" stroke-linecap="round" stroke-miterlimit="10" stroke-width="0.5"/>
            <line id="선_604" data-name="선 604" x1="1.821" y1="1.812" fill="none" stroke="#fff" stroke-linecap="round" stroke-miterlimit="10" stroke-width="0.5"/>
          </g>
          <path id="패스_433" data-name="패스 433" d="M2029.031-1132.339l16.787,10.393,12.642-5.433-3.6-2.231a2.075,2.075,0,0,1-.672-2.867,2.1,2.1,0,0,1,2.881-.669l6.068,3.757,8.715-3.745-2.91-1.8a2.076,2.076,0,0,1-.67-2.867,2.1,2.1,0,0,1,2.881-.669l5.375,3.329,9-3.87,7.975,3.685-24.348,15.3-6.209,9.936,21.668,14.667,13.1-5.356,3.856,2.388-11.757,10.258-4.045,15.033-3.857-2.388-.965-14.064-22.8-12.86-6.208,9.935-3.025,28.505-6.847-5.491-.494-9.75-5.376-3.328a2.077,2.077,0,0,1-.671-2.868,2.1,2.1,0,0,1,2.881-.667l2.909,1.8-.478-9.436-6.069-3.758a2.077,2.077,0,0,1-.672-2.867,2.1,2.1,0,0,1,2.882-.669l3.6,2.231-.695-13.69-16.787-10.393s-6.211-3.654-3.162-8.535S2029.031-1132.339,2029.031-1132.339Z" transform="translate(-2019.1 1145.622)" fill="none" stroke="#fff" stroke-linecap="round" stroke-linejoin="round" stroke-width="1"/>
          <path id="패스_434" data-name="패스 434" d="M2082.218-1094.042c6.208,5.032,13.63,7.659,21.006,9.754a186.817,186.817,0,0,0,56.629,7.052c12.848-.389,27.364-1.469,36.73,8.644,5.351,5.779,7.927,14.758,6.615,23.06" transform="translate(-2006.372 1154.442)" fill="none" stroke="#fff" stroke-linecap="round" stroke-miterlimit="10" stroke-width="0.5" stroke-dasharray="3"/>
        </g>
      </g>
    </g>
  </g>
</svg>
