<svg xmlns="http://www.w3.org/2000/svg" xmlns:xlink="http://www.w3.org/1999/xlink" width="330" height="135.986" viewBox="0 0 330 135.986">
  <defs>
    <clipPath id="clip-path">
      <rect id="사각형_654" data-name="사각형 654" width="330" height="135" transform="translate(0 14.076)" fill="#fff" stroke="#707070" stroke-width="1"/>
    </clipPath>
  </defs>
  <g id="meteItem02_m" transform="translate(607 995.986)">
    <rect id="사각형_644" data-name="사각형 644" width="330" height="135" transform="translate(-607 -995)" fill="#e07a5f"/>
    <g id="마스크_그룹_66" data-name="마스크 그룹 66" transform="translate(-607 -1010.063)" clip-path="url(#clip-path)">
      <g id="그룹_1778" data-name="그룹 1778" transform="translate(-43.81 13.789)">
        <g id="그룹_1774" data-name="그룹 1774" transform="translate(273.552 79.827)">
          <line id="선_1036" data-name="선 1036" x1="1.76" y2="1.75" transform="translate(5.255)" fill="none" stroke="#fff" stroke-linecap="round" stroke-miterlimit="10" stroke-width="0.5"/>
          <line id="선_1037" data-name="선 1037" x1="1.76" y2="1.75" transform="translate(0 5.223)" fill="none" stroke="#fff" stroke-linecap="round" stroke-miterlimit="10" stroke-width="0.5"/>
          <line id="선_1038" data-name="선 1038" x1="1.76" y1="1.75" transform="translate(5.255 5.223)" fill="none" stroke="#fff" stroke-linecap="round" stroke-miterlimit="10" stroke-width="0.5"/>
          <line id="선_1039" data-name="선 1039" x1="1.76" y1="1.75" fill="none" stroke="#fff" stroke-linecap="round" stroke-miterlimit="10" stroke-width="0.5"/>
        </g>
        <g id="그룹_1775" data-name="그룹 1775" transform="translate(228.549 69.67)">
          <line id="선_1040" data-name="선 1040" x1="1.76" y2="1.75" transform="translate(5.255)" fill="none" stroke="#fff" stroke-linecap="round" stroke-miterlimit="10" stroke-width="0.5"/>
          <line id="선_1041" data-name="선 1041" x1="1.76" y2="1.75" transform="translate(0 5.223)" fill="none" stroke="#fff" stroke-linecap="round" stroke-miterlimit="10" stroke-width="0.5"/>
          <line id="선_1042" data-name="선 1042" x1="1.76" y1="1.75" transform="translate(5.255 5.223)" fill="none" stroke="#fff" stroke-linecap="round" stroke-miterlimit="10" stroke-width="0.5"/>
          <line id="선_1043" data-name="선 1043" x1="1.76" y1="1.75" fill="none" stroke="#fff" stroke-linecap="round" stroke-miterlimit="10" stroke-width="0.5"/>
        </g>
        <path id="패스_678" data-name="패스 678" d="M2873.417-1582.459v1.9a4.709,4.709,0,0,0,4.723,4.694H2996a6.024,6.024,0,0,0,6.037-6.3l-4.27-87.945a6.953,6.953,0,0,0-6.964-6.6H2881.032s-5.983,0-5.983,5.948c0,0-.5,35.813,5.439,36.226h22.82a3.016,3.016,0,0,0,2.739-1.745l4.466-9.65a3.67,3.67,0,0,1,3.333-2.122h30.012a3.658,3.658,0,0,1,3.526,2.64c1.85,6.427,6.254,22.269,4.746,37.264" transform="translate(-2637.853 1703.092)" fill="none" stroke="#fff" stroke-miterlimit="10" stroke-width="1"/>
        <path id="패스_679" data-name="패스 679" d="M2908.563-1597.053h77.325a1.568,1.568,0,0,1,1.573,1.562v20.3a3.832,3.832,0,0,1-3.843,3.819H2871.529a3.832,3.832,0,0,1-3.843-3.819v-20.3a1.568,1.568,0,0,1,1.572-1.562h8.421" transform="translate(-2637.085 1692.002)" fill="none" stroke="#fff" stroke-miterlimit="10" stroke-width="1"/>
        <line id="선_1044" data-name="선 1044" y2="25.683" transform="translate(280.567 94.949)" fill="none" stroke="#fff" stroke-miterlimit="10" stroke-width="1"/>
        <path id="패스_680" data-name="패스 680" d="M2898.335-1627.707v17.376a1.637,1.637,0,0,1-1.642,1.632h0a1.637,1.637,0,0,1-1.642-1.632v-17.376" transform="translate(-2640.752 1696.27)" fill="none" stroke="#fff" stroke-miterlimit="10" stroke-width="1"/>
        <line id="선_1045" data-name="선 1045" x2="5.438" transform="translate(257.583 77)" fill="none" stroke="#fff" stroke-linecap="round" stroke-miterlimit="10" stroke-width="1"/>
        <line id="선_1046" data-name="선 1046" y2="4.28" transform="translate(263.021 74.86)" fill="none" stroke="#fff" stroke-linecap="round" stroke-miterlimit="10" stroke-width="1"/>
        <path id="패스_681" data-name="패스 681" d="M2894.412-1610.57h-1.559a1.067,1.067,0,0,0-1.07,1.064h0a1.067,1.067,0,0,0,1.07,1.064h1.559" transform="translate(-2640.314 1693.884)" fill="none" stroke="#fff" stroke-linecap="round" stroke-miterlimit="10" stroke-width="1"/>
        <line id="선_1047" data-name="선 1047" y2="4.777" transform="translate(255.941 87.571)" fill="none" stroke="#fff" stroke-linecap="round" stroke-miterlimit="10" stroke-width="1"/>
        <path id="패스_682" data-name="패스 682" d="M2886.049-1585.123l3.964-2.083,3.965,2.083,3.969-2.083,3.971,2.083,3.971-2.083,3.843,1.739v-13.893H2878.9v13.828l3.186-1.674Z" transform="translate(-2638.587 1692.323)" fill="none" stroke="#fff" stroke-linecap="round" stroke-linejoin="round" stroke-width="1"/>
        <line id="선_1048" data-name="선 1048" y2="42.174" transform="translate(257.583 26.389)" fill="none" stroke="#fff" stroke-linecap="round" stroke-linejoin="round" stroke-width="1"/>
        <path id="패스_683" data-name="패스 683" d="M3017.078-1667.5h8.672v22.167h-7.564" transform="translate(-2657.101 1701.811)" fill="none" stroke="#fff" stroke-linecap="round" stroke-linejoin="round" stroke-width="1"/>
        <ellipse id="타원_119" data-name="타원 119" cx="9.52" cy="9.462" rx="9.52" ry="9.462" transform="translate(329.711 35.49)" fill="none" stroke="#fff" stroke-linecap="round" stroke-linejoin="round" stroke-width="1"/>
        <ellipse id="타원_120" data-name="타원 120" cx="7.006" cy="6.963" rx="7.006" ry="6.963" transform="translate(332.225 37.989)" fill="none" stroke="#fff" stroke-linecap="round" stroke-linejoin="round" stroke-width="1"/>
        <ellipse id="타원_121" data-name="타원 121" cx="9.52" cy="9.462" rx="9.52" ry="9.462" transform="translate(329.711 60.215)" fill="none" stroke="#fff" stroke-linecap="round" stroke-linejoin="round" stroke-width="1"/>
        <ellipse id="타원_122" data-name="타원 122" cx="7.006" cy="6.963" rx="7.006" ry="6.963" transform="translate(332.225 62.715)" fill="none" stroke="#fff" stroke-linecap="round" stroke-linejoin="round" stroke-width="1"/>
        <path id="패스_684" data-name="패스 684" d="M2898.843-1661.92h47a4.526,4.526,0,0,0,4.54-4.512V-1676.7" transform="translate(-2641.26 1703.092)" fill="none" stroke="#fff" stroke-linecap="round" stroke-linejoin="round" stroke-width="1"/>
        <g id="그룹_1776" data-name="그룹 1776" transform="translate(195.595 21.586)">
          <path id="패스_685" data-name="패스 685" d="M2835.994-1586.852l-16,4.846a1.89,1.89,0,0,1-2.392-1.378l-6.451-28.052a1.875,1.875,0,0,1,1.291-2.215l12.067-3.654a1.891,1.891,0,0,1,2.313,1.123l10.383,26.861A1.874,1.874,0,0,1,2835.994-1586.852Z" transform="translate(-2811.104 1619.225)" fill="none" stroke="#fff" stroke-miterlimit="10" stroke-width="1"/>
          <line id="선_1049" data-name="선 1049" x2="10.149" y2="2.394" transform="translate(6.832 3.911)" fill="none" stroke="#fff" stroke-miterlimit="10" stroke-width="1"/>
          <line id="선_1050" data-name="선 1050" x2="18.586" y2="4.385" transform="translate(0.19 6.566)" fill="none" stroke="#fff" stroke-miterlimit="10" stroke-width="1"/>
          <line id="선_1051" data-name="선 1051" x2="20.116" y2="4.746" transform="translate(0.456 10.85)" fill="none" stroke="#fff" stroke-miterlimit="10" stroke-width="1"/>
          <line id="선_1052" data-name="선 1052" x2="20.572" y2="4.853" transform="translate(1.795 15.388)" fill="none" stroke="#fff" stroke-miterlimit="10" stroke-width="1"/>
          <line id="선_1053" data-name="선 1053" x2="21.209" y2="5.004" transform="translate(2.954 19.883)" fill="none" stroke="#fff" stroke-miterlimit="10" stroke-width="1"/>
          <line id="선_1054" data-name="선 1054" x2="22.11" y2="5.216" transform="translate(3.848 24.316)" fill="none" stroke="#fff" stroke-miterlimit="10" stroke-width="1"/>
          <line id="선_1055" data-name="선 1055" x2="17.92" y2="4.228" transform="translate(4.875 28.78)" fill="none" stroke="#fff" stroke-miterlimit="10" stroke-width="1"/>
          <path id="패스_686" data-name="패스 686" d="M.382,0,11.541.02A.383.383,0,0,1,11.924.4l0,1.965a.38.38,0,0,1-.382.38L.387,2.727A.383.383,0,0,1,0,2.346L0,.38A.38.38,0,0,1,.382,0Z" transform="translate(11.592 36.557) rotate(-16.945)" fill="none" stroke="#fff" stroke-width="1"/>
          <path id="패스_687" data-name="패스 687" d="M.382,0,6.731.011a.383.383,0,0,1,.383.381l0,1.965a.38.38,0,0,1-.382.38L.387,2.727A.383.383,0,0,1,0,2.346L0,.38A.38.38,0,0,1,.382,0Z" transform="translate(3.532 2.062) rotate(-16.945)" fill="none" stroke="#fff" stroke-width="1"/>
        </g>
        <g id="그룹_1777" data-name="그룹 1777" transform="translate(156.831 89.969)">
          <path id="패스_688" data-name="패스 688" d="M2790.577-1563.845l-16.235-3.994a1.875,1.875,0,0,1-1.344-2.4l8.934-27.373a1.889,1.889,0,0,1,2.25-1.243l12.246,3.013a1.876,1.876,0,0,1,1.407,2.142l-4.943,28.354A1.889,1.889,0,0,1,2790.577-1563.845Z" transform="translate(-2772.906 1600.753)" fill="none" stroke="#fff" stroke-miterlimit="10" stroke-width="1"/>
          <line id="선_1056" data-name="선 1056" x2="7.478" y2="7.228" transform="translate(16.851 3.269)" fill="none" stroke="#fff" stroke-miterlimit="10" stroke-width="1"/>
          <line id="선_1057" data-name="선 1057" x2="13.695" y2="13.237" transform="translate(9.779 2.164)" fill="none" stroke="#fff" stroke-miterlimit="10" stroke-width="1"/>
          <line id="선_1058" data-name="선 1058" x2="14.822" y2="14.327" transform="translate(7.797 5.977)" fill="none" stroke="#fff" stroke-miterlimit="10" stroke-width="1"/>
          <line id="선_1059" data-name="선 1059" x2="15.158" y2="14.651" transform="translate(6.606 10.556)" fill="none" stroke="#fff" stroke-miterlimit="10" stroke-width="1"/>
          <line id="선_1060" data-name="선 1060" x2="15.627" y2="15.105" transform="translate(5.282 15.006)" fill="none" stroke="#fff" stroke-miterlimit="10" stroke-width="1"/>
          <line id="선_1061" data-name="선 1061" x2="16.291" y2="15.747" transform="translate(3.763 19.267)" fill="none" stroke="#fff" stroke-miterlimit="10" stroke-width="1"/>
          <line id="선_1062" data-name="선 1062" x2="13.204" y2="12.763" transform="translate(2.341 23.623)" fill="none" stroke="#fff" stroke-miterlimit="10" stroke-width="1"/>
          <path id="패스_689" data-name="패스 689" d="M.382,0,11.543-.016a.38.38,0,0,1,.382.38l0,1.965a.383.383,0,0,1-.383.381L.378,2.725A.38.38,0,0,1,0,2.345L0,.38A.383.383,0,0,1,.382,0Z" transform="translate(4.095 33.723) rotate(13.902)" fill="none" stroke="#fff" stroke-width="1"/>
          <path id="패스_690" data-name="패스 690" d="M.382,0,6.733-.01a.38.38,0,0,1,.382.38l0,1.965a.383.383,0,0,1-.383.381l-6.35.009A.38.38,0,0,1,0,2.345L0,.38A.383.383,0,0,1,.382,0Z" transform="translate(14.972 0) rotate(13.902)" fill="none" stroke="#fff" stroke-width="1"/>
        </g>
        <path id="패스_691" data-name="패스 691" d="M2840.4-1663.227c-3.148,3.2-7.558,4.822-11.9,6.006-15.05,4.1-30.932,4.075-46.492,2.878s-31.039-3.532-46.639-3.942c-8.1-.213-15.32,3.22-21.579,8.338-6.6,5.4-9.289,16.313-8.189,24.125,1.5,10.682,9.3,15.425,19.328,18.906,11.22,3.9,23.394,4.744,35.173,3.686" transform="translate(-2602.306 1723.442)" fill="none" stroke="#fff" stroke-linecap="round" stroke-miterlimit="10" stroke-width="0.5" stroke-dasharray="3"/>
      </g>
    </g>
  </g>
</svg>
