<svg xmlns="http://www.w3.org/2000/svg" xmlns:xlink="http://www.w3.org/1999/xlink" width="352" height="440" viewBox="0 0 352 440">
  <defs>
    <clipPath id="clip-path">
      <rect id="사각형_752" data-name="사각형 752" width="352" height="230" fill="#fff" stroke="#707070" stroke-width="1"/>
    </clipPath>
  </defs>
  <g id="그룹_3301" data-name="그룹 3301" transform="translate(-1529 -697)">
    <g id="그룹_2810" data-name="그룹 2810" transform="translate(745 -426)">
      <g id="그룹_1481" data-name="그룹 1481" transform="translate(785.057 1123)">
        <rect id="사각형_536" data-name="사각형 536" width="352" height="440" transform="translate(-1.057)" fill="#cfc1b4"/>
      </g>
      <text id="쓰임이_다한_제품은_어떻게_할_수_있는지_" data-name="쓰임이 다한 제품은
어떻게 할 수 있는지?" transform="translate(804 1493)" fill="#f4f4f4" font-size="20" font-family="Pretendard-Bold, Pretendard" font-weight="700" opacity="0"><tspan x="0" y="19">쓰임이 다한 제품은</tspan><tspan x="0" y="45">어떻게 할 수 있는지?</tspan></text>
    </g>
    <g id="그룹_3269" data-name="그룹 3269">
      <g id="마스크_그룹_150" data-name="마스크 그룹 150" transform="translate(1529 797)" clip-path="url(#clip-path)">
        <g id="그룹_2820" data-name="그룹 2820" transform="translate(21.021 17.379)">
          <g id="그룹_2815" data-name="그룹 2815" transform="translate(89.95 25.295)">
            <line id="선_711" data-name="선 711" x2="15.421" y2="2.1" transform="translate(2.704 41.383)" fill="none" stroke="#fff" stroke-linecap="round" stroke-miterlimit="10" stroke-width="1"/>
            <path id="패스_755" data-name="패스 755" d="M3632.2-1029.9l19.337,61.811-28.3,6.96-28.3,6.96L3583.4-1017.9l3.029,16.743-17.265-2.9a2.006,2.006,0,0,1-1.6-2.491l5.578-21.046a15.138,15.138,0,0,1,5.961-8.529l6.434-4.495a5.945,5.945,0,0,1,3.156-1.07,66.394,66.394,0,0,0,14.227-2.044,66.405,66.405,0,0,0,13.554-4.787,5.95,5.95,0,0,1,3.292-.515l7.784,1a15.136,15.136,0,0,1,9.238,4.792l14.7,16.058a2.007,2.007,0,0,1-.26,2.948l-13.951,10.575" transform="translate(-3567.498 1049.084)" fill="none" stroke="#fff" stroke-linecap="round" stroke-linejoin="round" stroke-width="1"/>
            <path id="패스_756" data-name="패스 756" d="M3617.34-1045.7c-.519,5.459-6.3,10.848-14.3,12.815s-15.616-.13-18.607-4.725" transform="translate(-3564.82 1049.619)" fill="none" stroke="#fff" stroke-linecap="round" stroke-miterlimit="10" stroke-width="1"/>
            <path id="패스_757" data-name="패스 757" d="M3613.567-1048.3c-.237,5.389-4.943,10.515-11.659,12.166s-13.263-.708-15.972-5.372" transform="translate(-3564.584 1049.208)" fill="none" stroke="#fff" stroke-linecap="round" stroke-miterlimit="10" stroke-width="1"/>
            <line id="선_712" data-name="선 712" x1="12.689" y2="9.012" transform="translate(68.434 22.102)" fill="none" stroke="#fff" stroke-linecap="round" stroke-miterlimit="10" stroke-width="1"/>
            <line id="선_713" data-name="선 713" y1="12.03" x2="48.925" transform="translate(30.062 77.018)" fill="none" stroke="#fff" stroke-linecap="round" stroke-linejoin="round" stroke-width="1"/>
          </g>
          <g id="그룹_3270" data-name="그룹 3270" transform="matrix(0.695, 0.719, -0.719, 0.695, 16.93, -67.613)">
            <line id="선_711-2" data-name="선 711" x2="15.421" y2="2.1" transform="translate(2.704 41.383)" fill="none" stroke="#fff" stroke-linecap="round" stroke-miterlimit="10" stroke-width="1"/>
            <path id="패스_755-2" data-name="패스 755" d="M3632.2-1029.9l19.337,61.811-28.3,6.96-28.3,6.96L3583.4-1017.9l3.029,16.743-17.265-2.9a2.006,2.006,0,0,1-1.6-2.491l5.578-21.046a15.138,15.138,0,0,1,5.961-8.529l6.434-4.495a5.945,5.945,0,0,1,3.156-1.07,66.394,66.394,0,0,0,14.227-2.044,66.405,66.405,0,0,0,13.554-4.787,5.95,5.95,0,0,1,3.292-.515l7.784,1a15.136,15.136,0,0,1,9.238,4.792l14.7,16.058a2.007,2.007,0,0,1-.26,2.948l-13.951,10.575" transform="translate(-3567.498 1049.084)" fill="none" stroke="#fff" stroke-linecap="round" stroke-linejoin="round" stroke-width="1"/>
            <path id="패스_756-2" data-name="패스 756" d="M3617.34-1045.7c-.519,5.459-6.3,10.848-14.3,12.815s-15.616-.13-18.607-4.725" transform="translate(-3564.82 1049.619)" fill="none" stroke="#fff" stroke-linecap="round" stroke-miterlimit="10" stroke-width="1"/>
            <path id="패스_757-2" data-name="패스 757" d="M3613.567-1048.3c-.237,5.389-4.943,10.515-11.659,12.166s-13.263-.708-15.972-5.372" transform="translate(-3564.584 1049.208)" fill="none" stroke="#fff" stroke-linecap="round" stroke-miterlimit="10" stroke-width="1"/>
            <line id="선_712-2" data-name="선 712" x1="12.689" y2="9.012" transform="translate(68.434 22.102)" fill="none" stroke="#fff" stroke-linecap="round" stroke-miterlimit="10" stroke-width="1"/>
            <line id="선_713-2" data-name="선 713" y1="12.03" x2="48.925" transform="translate(30.062 77.018)" fill="none" stroke="#fff" stroke-linecap="round" stroke-linejoin="round" stroke-width="1"/>
          </g>
          <g id="그룹_2817" data-name="그룹 2817" transform="translate(-35 103.549)">
            <g id="그룹_2816" data-name="그룹 2816" transform="translate(0 5.727)">
              <line id="선_714" data-name="선 714" x2="14.503" y2="7.905" transform="translate(3.475 25.527)" fill="none" stroke="#fff" stroke-linecap="round" stroke-miterlimit="10" stroke-width="1"/>
              <path id="패스_758" data-name="패스 758" d="M3543.1-1079.819l7.344,3.932a15.971,15.971,0,0,1,7.32,8.106l8.387,20.944a2.028,2.028,0,0,1-1.4,2.712l-17.947,4.746" transform="translate(-3474.403 1084.892)" fill="none" stroke="#fff" stroke-linecap="round" stroke-linejoin="round" stroke-width="1"/>
              <path id="패스_759" data-name="패스 759" d="M3557.416-1056.119l-4.295,63.31-30.8-4.194-30.8-4.2,12.792-62.155-3.469,17.128-16.025-9.373a2.028,2.028,0,0,1-.621-2.986l13.683-17.939a15.977,15.977,0,0,1,9.222-5.853l8.129-1.824" transform="translate(-3483.778 1084.2)" fill="none" stroke="#fff" stroke-linecap="round" stroke-linejoin="round" stroke-width="1"/>
              <line id="선_715" data-name="선 715" x1="16.089" y2="3.739" transform="translate(72.73 37.15)" fill="none" stroke="#fff" stroke-linecap="round" stroke-miterlimit="10" stroke-width="1"/>
              <line id="선_716" data-name="선 716" x2="53.245" y2="7.252" transform="translate(12.619 78.414)" fill="none" stroke="#fff" stroke-linecap="round" stroke-linejoin="round" stroke-width="1"/>
            </g>
            <path id="패스_760" data-name="패스 760" d="M3547.336-1079.857l-2.64-4.557a3.06,3.06,0,0,0-2.643-1.444c-9.624-.217-11.776-.714-11.776-.714s-2.207-.095-11.539-2.461a3.059,3.059,0,0,0-2.932.684l-3.764,3.685a2.54,2.54,0,0,0-.6,2.712,32.159,32.159,0,0,0,5.577,9.695,3.814,3.814,0,0,0,4.337.96l2.968-1.259s2.888-1.359,4.208-1.179,3.739,2.262,3.739,2.262l2.523,2.007a3.815,3.815,0,0,0,4.437.235,32.207,32.207,0,0,0,7.966-7.851A2.539,2.539,0,0,0,3547.336-1079.857Z" transform="translate(-3479.432 1089.145)" fill="none" stroke="#fff" stroke-linecap="round" stroke-linejoin="round" stroke-width="1"/>
            <path id="패스_761" data-name="패스 761" d="M3517.245-1087.182a28.387,28.387,0,0,0,8.9,9.841,4.213,4.213,0,0,0,3.756.509c2.774-.944,7.791-3.1,11.065-7.12" transform="translate(-3478.489 1089.455)" fill="none" stroke="#fff" stroke-linecap="round" stroke-linejoin="round" stroke-width="1"/>
            <path id="패스_762" data-name="패스 762" d="M3530.459-1073.764l-1.262,9.27a1.479,1.479,0,0,1-1.665,1.266l-4.661-.635a1.479,1.479,0,0,1-1.265-1.665l1.263-9.27" transform="translate(-3477.802 1091.412)" fill="none" stroke="#fff" stroke-linecap="round" stroke-linejoin="round" stroke-width="1"/>
            <circle id="타원_178" data-name="타원 178" cx="1.241" cy="1.241" r="1.241" transform="translate(47.215 18.872)" fill="#fff"/>
          </g>
          <g id="그룹_2818" data-name="그룹 2818" transform="translate(163.711 -24)">
            <rect id="사각형_749" data-name="사각형 749" width="55.004" height="5.636" transform="matrix(0.963, 0.269, -0.269, 0.963, 28.592, 0)" fill="none" stroke="#fff" stroke-linecap="round" stroke-linejoin="round" stroke-width="1"/>
            <path id="패스_763" data-name="패스 763" d="M3631.193-1032.4c2.994-8.772,10.2-26.141,27.079-54.565" transform="translate(-3631.193 1092.393)" fill="none" stroke="#fff" stroke-linecap="round" stroke-linejoin="round" stroke-width="1"/>
            <path id="패스_764" data-name="패스 764" d="M3709.811-1074.2c-.4,51.378-6.988,67.814-6.988,67.814l-35.465-5.482,7.636-39.856-.023-.006-14.084,38.058-20.4-8.4" transform="translate(-3629.725 1094.409)" fill="none" stroke="#fff" stroke-linecap="round" stroke-linejoin="round" stroke-width="1"/>
            <line id="선_717" data-name="선 717" x2="35.848" y2="5.458" transform="translate(38.251 79.313)" fill="none" stroke="#fff" stroke-linecap="round" stroke-linejoin="round" stroke-width="1"/>
            <line id="선_718" data-name="선 718" x1="26.017" y1="10.775" transform="translate(6.281 66.879)" fill="none" stroke="#fff" stroke-linecap="round" stroke-linejoin="round" stroke-width="1"/>
            <path id="패스_765" data-name="패스 765" d="M3695.893-1034.824a92.74,92.74,0,0,1-2.58,15.575" transform="translate(-3621.376 1100.633)" fill="none" stroke="#fff" stroke-linecap="round" stroke-linejoin="round" stroke-width="1"/>
            <rect id="사각형_750" data-name="사각형 750" width="6.315" height="5.636" transform="matrix(0.963, 0.269, -0.269, 0.963, 52.043, 6.537)" fill="none" stroke="#fff" stroke-linecap="round" stroke-linejoin="round" stroke-width="1"/>
          </g>
          <g id="그룹_2819" data-name="그룹 2819" transform="translate(259.595 33.552)">
            <rect id="사각형_751" data-name="사각형 751" width="104.218" height="6.563" transform="matrix(0.921, 0.391, -0.391, 0.921, 2.564, 11.935)" fill="none" stroke="#fff" stroke-linecap="round" stroke-linejoin="round" stroke-width="1"/>
            <path id="패스_766" data-name="패스 766" d="M3710.162-1050.743l2.65-6.247a9.329,9.329,0,0,1,12.232-4.944l78.761,33.424a9.329,9.329,0,0,1,4.943,12.232l-2.651,6.248" transform="translate(-3707.598 1062.678)" fill="none" stroke="#fff" stroke-linecap="round" stroke-linejoin="round" stroke-width="1"/>
            <path id="패스_767" data-name="패스 767" d="M3754.621-1047.161l4.226-9.958a1.242,1.242,0,0,1,1.628-.658l3.271,1.388a1.241,1.241,0,0,1,.659,1.628l-4.227,9.958" transform="translate(-3700.572 1063.437)" fill="none" stroke="#fff" stroke-linecap="round" stroke-linejoin="round" stroke-width="1"/>
          </g>
          <path id="패스_768" data-name="패스 768" d="M3703.987-973.543v-28.672a5.888,5.888,0,0,1,5.888-5.889h67.446" transform="translate(-3448.979 1104.855)" fill="none" stroke="#fff" stroke-linecap="round" stroke-linejoin="round" stroke-width="1"/>
          <line id="선_719" data-name="선 719" y2="34.561" transform="translate(348.125 96.752)" fill="none" stroke="#fff" stroke-linecap="round" stroke-linejoin="round" stroke-width="1"/>
          <line id="선_720" data-name="선 720" x2="66.185" transform="translate(262.159 103.549)" fill="none" stroke="#fff" stroke-linecap="round" stroke-linejoin="round" stroke-width="1"/>
        </g>
      </g>
      <g id="그룹_2800" data-name="그룹 2800" transform="translate(745 -431)" opacity="0">
        <g id="icon_arrow" transform="translate(1088.125 1151.232)">
          <rect id="사각형_468" data-name="사각형 468" width="28" height="28" transform="translate(-0.125 -0.232)" fill="none"/>
          <g id="그룹_1170" data-name="그룹 1170" transform="translate(6.952)">
            <path id="패스_282" data-name="패스 282" d="M13.173,39.806a1.069,1.069,0,0,1-.757-1.826L24.495,25.9,12.417,13.826a1.07,1.07,0,0,1,1.513-1.513L26.763,25.146a1.071,1.071,0,0,1,0,1.513L13.93,39.493A1.07,1.07,0,0,1,13.173,39.806Z" transform="translate(-12.104 -12)" fill="#fff"/>
          </g>
        </g>
        <text id="_5._폐기" data-name="5. 폐기" transform="translate(804 1148)" fill="#f4f4f4" font-size="28" font-family="Pretendard-Bold, Pretendard" font-weight="700"><tspan x="0" y="27">5. 폐기</tspan></text>
      </g>
    </g>
  </g>
</svg>
