<svg xmlns="http://www.w3.org/2000/svg" xmlns:xlink="http://www.w3.org/1999/xlink" width="518" height="135" viewBox="0 0 518 135">
  <defs>
    <clipPath id="clip-path">
      <rect id="사각형_655" data-name="사각형 655" width="518" height="135" transform="translate(0 34)" fill="#fff" stroke="#707070" stroke-width="1"/>
    </clipPath>
  </defs>
  <g id="meteItem01_pop" transform="translate(0 -34)" clip-path="url(#clip-path)">
    <g id="그룹_1782" data-name="그룹 1782" transform="translate(150.165 -0.153)">
      <g id="그룹_1779" data-name="그룹 1779" transform="translate(0 111.122)">
        <path id="패스_692" data-name="패스 692" d="M2103.161-1286.826a6.579,6.579,0,0,0,3.934-5.019c.373-3.226-2.162-6.263-5.947-7.537,2.2-1.731,3.387-4.11,2.9-6.43-.6-2.887-3.617-4.831-7.341-5.086a4.371,4.371,0,0,0,.034-1.911c-.7-3.37-5.341-5.262-10.359-4.227-.368.076-.725.17-1.075.272-1.875-3.235-7.013-4.219-11.882-2.155-.077.033-.149.072-.225.106a6.331,6.331,0,0,0-2.455-5.188c-2-1.422-4.745-1.308-7.324.017.432-2.853-.346-5.475-2.343-6.9-2.037-1.45-4.857-1.308-7.481.1a5.428,5.428,0,0,0-1.932-5.622,5.712,5.712,0,0,0-6.809.527c-3.174-3.83-8.113-5.05-11.215-2.693a5.718,5.718,0,0,0-1.188,1.238,8.94,8.94,0,0,0-8.549-.926,8.674,8.674,0,0,0-4.075,3.569c-2.869-1.833-6.218-2.077-8.539-.314a6.929,6.929,0,0,0-2.288,6.84c-2.888-.863-5.794-.361-7.557,1.6a6.937,6.937,0,0,0-.928,7.2c-4.685-.166-8.652,2.413-9.073,6.053a6.053,6.053,0,0,0,1.4,4.48,6.31,6.31,0,0,0-4.032,3.33,6.792,6.792,0,0,0,2.558,8.353c-.136.16-.269.327-.394.5a6.922,6.922,0,0,0-1.293,5.06,6.411,6.411,0,0,0-3.426,4.747c-.45,3.885,3.313,7.506,8.4,8.087a11.975,11.975,0,0,0,2.022.058h0l101.812,5.231c.076.01.152.027.229.034a12.167,12.167,0,0,0,1.809.07h.014c4.3-.159,7.813-2.638,8.208-6.051C2109.124-1282.535,2106.754-1285.489,2103.161-1286.826Z" transform="translate(-1986.229 1339.777)" fill="none" stroke="#fff" stroke-linecap="round" stroke-miterlimit="10" stroke-width="1"/>
        <path id="패스_693" data-name="패스 693" d="M2048.777-1296.115s-1.709-5.889,7.863-4.3c0,0,3.532-7.111,10.71-.271,0,0,4.9-5.619,9.8.043" transform="translate(-1976.515 1345.144)" fill="none" stroke="#fff" stroke-linecap="round" stroke-miterlimit="10" stroke-width="1"/>
        <path id="패스_694" data-name="패스 694" d="M2070.086-1290.62s5.242-3.851,6.951,1.359c0,0,6.152-.435,3.646,4.936" transform="translate(-1973.181 1346.878)" fill="none" stroke="#fff" stroke-linecap="round" stroke-miterlimit="10" stroke-width="1"/>
        <path id="패스_695" data-name="패스 695" d="M2034.108-1290.821s-3.734-7.7-11.724-3.058c0,0-4.456-6.229-7.077,1.473" transform="translate(-1981.705 1346.244)" fill="none" stroke="#fff" stroke-linecap="round" stroke-miterlimit="10" stroke-width="1"/>
        <path id="패스_696" data-name="패스 696" d="M2027.938-1305.8s-5.514-7.5-12.009-1.2c0,0-3.418-7.049-10.255-.658" transform="translate(-1983.203 1344.151)" fill="none" stroke="#fff" stroke-linecap="round" stroke-miterlimit="10" stroke-width="1"/>
        <path id="패스_697" data-name="패스 697" d="M2034.758-1315.78s6.609-.453,9.685,4.19c0,0,5.013-4.882,9.685-2.1,0,0,8.091-4.695,10.939,2.1" transform="translate(-1978.678 1343.341)" fill="none" stroke="#fff" stroke-linecap="round" stroke-miterlimit="10" stroke-width="1"/>
        <path id="패스_698" data-name="패스 698" d="M2003.9-1322.6s4.33-4.869,7.064.566c0,0,4.9-3.736,4.443,1.586" transform="translate(-1983.48 1342.032)" fill="none" stroke="#fff" stroke-linecap="round" stroke-miterlimit="10" stroke-width="1"/>
        <path id="패스_699" data-name="패스 699" d="M2021.369-1331.973s8.06-3.059,9.769,3.85c0,0,8.773-1.132,4.558,6.8" transform="translate(-1980.761 1340.837)" fill="none" stroke="#fff" stroke-linecap="round" stroke-miterlimit="10" stroke-width="1"/>
      </g>
      <g id="그룹_1780" data-name="그룹 1780" transform="translate(125.209 95.949)">
        <path id="패스_700" data-name="패스 700" d="M2111.946-1357.594a8.067,8.067,0,0,0-7.038.888,4.477,4.477,0,0,1-2.463,1.157,5.447,5.447,0,0,1-1.354-.362,4.807,4.807,0,0,0-5.112,1.665c-.412.552-.7,1.191-1.131,1.73-.915,1.137-2.38,1.706-3.387,2.762a4.831,4.831,0,0,0-1.114,4.627,6.261,6.261,0,0,1,.465,1.765c-.007,1.717-2.07,2.5-3.474,3.5a6.267,6.267,0,0,0-2.526,5.821,6.288,6.288,0,0,0,3.993,4.945,9.288,9.288,0,0,1,2.144.836,9.589,9.589,0,0,1,1.577,1.731,10.258,10.258,0,0,0,5.146,2.714,12.9,12.9,0,0,0,5.721.52,5.623,5.623,0,0,0,4.368-3.373c1.524,2.452,3.179,5.026,5.778,6.3,2.319,1.142,5.031,1.068,7.619.969,3.206-.123,6.607-.308,9.241-2.126a9.293,9.293,0,0,0,8.415,2.918,9.245,9.245,0,0,0,6.873-5.64c2.087,1.371,4.939.206,6.824-1.429a7.863,7.863,0,0,0,2.422-3.274,3.984,3.984,0,0,0-.6-3.881,5.163,5.163,0,0,0,2.926-5.419,5.19,5.19,0,0,0-4.549-4.168,5.531,5.531,0,0,0,1.311-5.555,5.579,5.579,0,0,0-4.407-3.654,6.4,6.4,0,0,0-3.04-6.986,6.487,6.487,0,0,0-7.57,1.145,8.127,8.127,0,0,0-7.373-4.038,8.146,8.146,0,0,0-6.151,3.5c-.52.76-.843,2.482-1.8,2.775-1.005.307-1.881-.478-2.859-.492-1.545-.021-1.856,1.3-3.117,1.716C2115.541-1353.277,2113.865-1356.921,2111.946-1357.594Z" transform="translate(-2084.76 1361.507)" fill="none" stroke="#fff" stroke-linecap="round" stroke-miterlimit="10" stroke-width="1"/>
        <path id="패스_701" data-name="패스 701" d="M2127.1-1344.853s-7.785-1.994-6.87,6.106c0,0-3.272.318-1.084,4.729" transform="translate(-2079.526 1363.949)" fill="none" stroke="#fff" stroke-linecap="round" stroke-miterlimit="10" stroke-width="1"/>
        <path id="패스_702" data-name="패스 702" d="M2126.41-1337.643s4.511-4.519,8.73.338c0,0,4.811-1.881,5.639,1.586" transform="translate(-2078.278 1364.769)" fill="none" stroke="#fff" stroke-linecap="round" stroke-miterlimit="10" stroke-width="1"/>
        <path id="패스_703" data-name="패스 703" d="M2121.316-1353.22s3.838-4.823,8.719-.6c0,0,7.934-2.649,8.18,5.988" transform="translate(-2079.072 1362.391)" fill="none" stroke="#fff" stroke-linecap="round" stroke-miterlimit="10" stroke-width="1"/>
        <path id="패스_704" data-name="패스 704" d="M2097.775-1351.357s1.85-3.869,5.5-.377" transform="translate(-2082.734 1362.742)" fill="none" stroke="#fff" stroke-linecap="round" stroke-miterlimit="10" stroke-width="1"/>
        <path id="패스_705" data-name="패스 705" d="M2104.336-1341.458s1.289-3.479,5.766-1.68c0,0-1.1-4.055,5.688-2.806" transform="translate(-2081.713 1363.784)" fill="none" stroke="#fff" stroke-linecap="round" stroke-miterlimit="10" stroke-width="1"/>
        <path id="패스_706" data-name="패스 706" d="M2091.133-1335.49s4.465-5.1,6.973.516" transform="translate(-2083.768 1365.058)" fill="none" stroke="#fff" stroke-linecap="round" stroke-miterlimit="10" stroke-width="1"/>
      </g>
      <g id="그룹_1781" data-name="그룹 1781" transform="translate(274.161 83.783)">
        <path id="패스_707" data-name="패스 707" d="M2321.931-1259.016l-56.919,19.567a7.65,7.65,0,0,1-9.8-4.932L2216.7-1368.062a7.583,7.583,0,0,1,4.8-9.423l48.841-16.79a7.654,7.654,0,0,1,9.633,4.461l46.594,120.9A7.582,7.582,0,0,1,2321.931-1259.016Z" transform="translate(-2216.357 1396.044)" fill="none" stroke="#fff" stroke-miterlimit="10" stroke-width="1"/>
        <path id="패스_708" data-name="패스 708" d="M2234.767-1381.856l-1.284-3.693a3.521,3.521,0,0,1,2.193-4.485l17.126-5.887a3.552,3.552,0,0,1,4.512,2.18l1.285,3.693" transform="translate(-2217.117 1396.116)" fill="none" stroke="#fff" stroke-miterlimit="10" stroke-width="1"/>
        <path id="패스_709" data-name="패스 709" d="M2308.454-1245.778l1.285,3.694a3.521,3.521,0,0,1-2.193,4.484l-17.126,5.887a3.554,3.554,0,0,1-4.512-2.179l-1.286-3.694" transform="translate(-2219.423 1388.493)" fill="none" stroke="#fff" stroke-miterlimit="10" stroke-width="1"/>
        <line id="선_1063" data-name="선 1063" x2="65.001" y2="4.608" transform="translate(5.145 18.559)" fill="none" stroke="#fff" stroke-miterlimit="10" stroke-width="1"/>
        <line id="선_1064" data-name="선 1064" x2="53.712" y2="3.808" transform="translate(14.841 15.225)" fill="none" stroke="#fff" stroke-miterlimit="10" stroke-width="1"/>
        <line id="선_1065" data-name="선 1065" x2="42.117" y2="2.986" transform="translate(24.8 11.802)" fill="none" stroke="#fff" stroke-miterlimit="10" stroke-width="1"/>
        <line id="선_1066" data-name="선 1066" x2="30.453" y2="2.159" transform="translate(34.818 8.358)" fill="none" stroke="#fff" stroke-miterlimit="10" stroke-width="1"/>
        <line id="선_1067" data-name="선 1067" x2="18.762" y2="1.322" transform="translate(44.857 4.907)" fill="none" stroke="#fff" stroke-miterlimit="10" stroke-width="1"/>
        <line id="선_1068" data-name="선 1068" x2="55.475" y2="3.933" transform="translate(22.895 40.573)" fill="none" stroke="#fff" stroke-miterlimit="10" stroke-width="1"/>
        <line id="선_1069" data-name="선 1069" x2="49.751" y2="3.527" transform="translate(27.026 36.845)" fill="none" stroke="#fff" stroke-miterlimit="10" stroke-width="1"/>
        <line id="선_1070" data-name="선 1070" x2="43.872" y2="3.11" transform="translate(31.268 33.016)" fill="none" stroke="#fff" stroke-miterlimit="10" stroke-width="1"/>
        <line id="선_1071" data-name="선 1071" x2="37.301" y2="2.644" transform="translate(36.194 29.211)" fill="none" stroke="#fff" stroke-miterlimit="10" stroke-width="1"/>
        <line id="선_1072" data-name="선 1072" x2="32.034" y2="2.258" transform="translate(39.808 25.31)" fill="none" stroke="#fff" stroke-miterlimit="10" stroke-width="1"/>
        <line id="선_1073" data-name="선 1073" x2="50.063" y2="3.549" transform="translate(36.742 62.847)" fill="none" stroke="#fff" stroke-miterlimit="10" stroke-width="1"/>
        <line id="선_1074" data-name="선 1074" x2="44.339" y2="3.143" transform="translate(40.873 59.119)" fill="none" stroke="#fff" stroke-miterlimit="10" stroke-width="1"/>
        <line id="선_1075" data-name="선 1075" x2="37.984" y2="2.693" transform="translate(45.592 55.324)" fill="none" stroke="#fff" stroke-miterlimit="10" stroke-width="1"/>
        <line id="선_1076" data-name="선 1076" x2="32.546" y2="2.307" transform="translate(49.384 51.439)" fill="none" stroke="#fff" stroke-miterlimit="10" stroke-width="1"/>
        <line id="선_1077" data-name="선 1077" x2="26.62" y2="1.876" transform="translate(53.658 47.581)" fill="none" stroke="#fff" stroke-miterlimit="10" stroke-width="1"/>
        <line id="선_1078" data-name="선 1078" x2="50.936" y2="3.611" transform="translate(44.063 83.872)" fill="none" stroke="#fff" stroke-miterlimit="10" stroke-width="1"/>
        <line id="선_1079" data-name="선 1079" x2="45.212" y2="3.205" transform="translate(48.193 80.144)" fill="none" stroke="#fff" stroke-miterlimit="10" stroke-width="1"/>
        <line id="선_1080" data-name="선 1080" x2="39.333" y2="2.789" transform="translate(52.436 76.316)" fill="none" stroke="#fff" stroke-miterlimit="10" stroke-width="1"/>
        <line id="선_1081" data-name="선 1081" x2="33.419" y2="2.369" transform="translate(56.704 72.464)" fill="none" stroke="#fff" stroke-miterlimit="10" stroke-width="1"/>
        <line id="선_1082" data-name="선 1082" x2="27.493" y2="1.938" transform="translate(60.978 68.607)" fill="none" stroke="#fff" stroke-miterlimit="10" stroke-width="1"/>
        <line id="선_1083" data-name="선 1083" x2="45.294" y2="3.211" transform="translate(57.632 105.013)" fill="none" stroke="#fff" stroke-miterlimit="10" stroke-width="1"/>
        <line id="선_1084" data-name="선 1084" x2="39.57" y2="2.805" transform="translate(61.763 101.286)" fill="none" stroke="#fff" stroke-miterlimit="10" stroke-width="1"/>
        <line id="선_1085" data-name="선 1085" x2="33.691" y2="2.389" transform="translate(66.005 97.457)" fill="none" stroke="#fff" stroke-miterlimit="10" stroke-width="1"/>
        <line id="선_1086" data-name="선 1086" x2="27.777" y2="1.969" transform="translate(70.273 93.605)" fill="none" stroke="#fff" stroke-miterlimit="10" stroke-width="1"/>
        <line id="선_1087" data-name="선 1087" x2="21.848" y2="1.54" transform="translate(74.55 89.746)" fill="none" stroke="#fff" stroke-miterlimit="10" stroke-width="1"/>
        <line id="선_1088" data-name="선 1088" x2="45.771" y2="3.245" transform="translate(64.921 125.961)" fill="none" stroke="#fff" stroke-miterlimit="10" stroke-width="1"/>
        <line id="선_1089" data-name="선 1089" x2="40.375" y2="2.862" transform="translate(69.052 122.233)" fill="none" stroke="#fff" stroke-miterlimit="10" stroke-width="1"/>
        <line id="선_1090" data-name="선 1090" x2="34.497" y2="2.446" transform="translate(73.294 118.405)" fill="none" stroke="#fff" stroke-miterlimit="10" stroke-width="1"/>
        <line id="선_1091" data-name="선 1091" x2="28.582" y2="2.026" transform="translate(77.563 114.553)" fill="none" stroke="#fff" stroke-miterlimit="10" stroke-width="1"/>
        <line id="선_1092" data-name="선 1092" x2="22.653" y2="1.597" transform="translate(81.839 110.694)" fill="none" stroke="#fff" stroke-miterlimit="10" stroke-width="1"/>
        <line id="선_1093" data-name="선 1093" x2="20.624" y2="1.462" transform="translate(85.515 135.372)" fill="none" stroke="#fff" stroke-miterlimit="10" stroke-width="1"/>
        <line id="선_1094" data-name="선 1094" x2="20.263" y2="1.428" transform="translate(89.791 131.513)" fill="none" stroke="#fff" stroke-miterlimit="10" stroke-width="1"/>
        <line id="선_1095" data-name="선 1095" x1="35.962" y2="32.453" transform="translate(8.351 21.244)" fill="none" stroke="#fff" stroke-miterlimit="10" stroke-width="1"/>
        <line id="선_1096" data-name="선 1096" x1="31.655" y2="28.566" transform="translate(7.035 20.903)" fill="none" stroke="#fff" stroke-miterlimit="10" stroke-width="1"/>
        <line id="선_1097" data-name="선 1097" x1="27.256" y2="24.597" transform="translate(5.682 20.529)" fill="none" stroke="#fff" stroke-miterlimit="10" stroke-width="1"/>
        <line id="선_1098" data-name="선 1098" x1="22.929" y2="20.692" transform="translate(4.376 20.016)" fill="none" stroke="#fff" stroke-miterlimit="10" stroke-width="1"/>
        <line id="선_1099" data-name="선 1099" x1="18.481" y2="16.664" transform="translate(2.958 19.714)" fill="none" stroke="#fff" stroke-miterlimit="10" stroke-width="1"/>
        <line id="선_1100" data-name="선 1100" x1="13.96" y2="12.588" transform="translate(1.389 19.282)" fill="none" stroke="#fff" stroke-miterlimit="10" stroke-width="1"/>
        <line id="선_1101" data-name="선 1101" x1="41.814" y2="37.734" transform="translate(16.804 43.105)" fill="none" stroke="#fff" stroke-miterlimit="10" stroke-width="1"/>
        <line id="선_1102" data-name="선 1102" x1="37.566" y2="33.9" transform="translate(15.487 42.711)" fill="none" stroke="#fff" stroke-miterlimit="10" stroke-width="1"/>
        <line id="선_1103" data-name="선 1103" x1="33.202" y2="29.962" transform="translate(14.135 42.306)" fill="none" stroke="#fff" stroke-miterlimit="10" stroke-width="1"/>
        <line id="선_1104" data-name="선 1104" x1="28.954" y2="26.128" transform="translate(12.774 41.77)" fill="none" stroke="#fff" stroke-miterlimit="10" stroke-width="1"/>
        <line id="선_1105" data-name="선 1105" x1="24.431" y2="22.029" transform="translate(11.41 41.491)" fill="none" stroke="#fff" stroke-miterlimit="10" stroke-width="1"/>
        <line id="선_1106" data-name="선 1106" x1="41.814" y2="37.734" transform="translate(23.361 64.819)" fill="none" stroke="#fff" stroke-miterlimit="10" stroke-width="1"/>
        <line id="선_1107" data-name="선 1107" x1="37.566" y2="33.9" transform="translate(22.044 64.425)" fill="none" stroke="#fff" stroke-miterlimit="10" stroke-width="1"/>
        <line id="선_1108" data-name="선 1108" x1="33.202" y2="29.962" transform="translate(20.692 64.02)" fill="none" stroke="#fff" stroke-miterlimit="10" stroke-width="1"/>
        <line id="선_1109" data-name="선 1109" x1="28.954" y2="26.128" transform="translate(19.331 63.484)" fill="none" stroke="#fff" stroke-miterlimit="10" stroke-width="1"/>
        <line id="선_1110" data-name="선 1110" x1="24.431" y2="22.029" transform="translate(17.968 63.205)" fill="none" stroke="#fff" stroke-miterlimit="10" stroke-width="1"/>
        <line id="선_1111" data-name="선 1111" x1="19.782" y2="17.837" transform="translate(9.97 41.059)" fill="none" stroke="#fff" stroke-miterlimit="10" stroke-width="1"/>
        <line id="선_1112" data-name="선 1112" x1="46.727" y2="42.168" transform="translate(31.637 86.304)" fill="none" stroke="#fff" stroke-miterlimit="10" stroke-width="1"/>
        <line id="선_1113" data-name="선 1113" x1="42.478" y2="38.334" transform="translate(30.32 85.909)" fill="none" stroke="#fff" stroke-miterlimit="10" stroke-width="1"/>
        <line id="선_1114" data-name="선 1114" x1="38.115" y2="34.396" transform="translate(28.968 85.504)" fill="none" stroke="#fff" stroke-miterlimit="10" stroke-width="1"/>
        <line id="선_1115" data-name="선 1115" x1="33.725" y2="30.434" transform="translate(27.607 85.097)" fill="none" stroke="#fff" stroke-miterlimit="10" stroke-width="1"/>
        <line id="선_1116" data-name="선 1116" x1="29.347" y2="26.462" transform="translate(26.243 84.689)" fill="none" stroke="#fff" stroke-miterlimit="10" stroke-width="1"/>
        <line id="선_1117" data-name="선 1117" x1="47.666" y2="43.015" transform="translate(38.354 107.026)" fill="none" stroke="#fff" stroke-miterlimit="10" stroke-width="1"/>
        <line id="선_1118" data-name="선 1118" x1="43.418" y2="39.181" transform="translate(37.037 106.632)" fill="none" stroke="#fff" stroke-miterlimit="10" stroke-width="1"/>
        <line id="선_1119" data-name="선 1119" x1="39.054" y2="35.243" transform="translate(35.685 106.226)" fill="none" stroke="#fff" stroke-miterlimit="10" stroke-width="1"/>
        <line id="선_1120" data-name="선 1120" x1="34.664" y2="31.282" transform="translate(34.324 105.819)" fill="none" stroke="#fff" stroke-miterlimit="10" stroke-width="1"/>
        <line id="선_1121" data-name="선 1121" x1="30.287" y2="27.309" transform="translate(32.96 105.412)" fill="none" stroke="#fff" stroke-miterlimit="10" stroke-width="1"/>
        <line id="선_1122" data-name="선 1122" x1="23.467" y2="21.178" transform="translate(69.892 128.117)" fill="none" stroke="#fff" stroke-miterlimit="10" stroke-width="1"/>
        <line id="선_1123" data-name="선 1123" x1="27.598" y2="24.906" transform="translate(60.196 127.722)" fill="none" stroke="#fff" stroke-miterlimit="10" stroke-width="1"/>
        <line id="선_1124" data-name="선 1124" x1="31.841" y2="28.734" transform="translate(50.237 127.317)" fill="none" stroke="#fff" stroke-miterlimit="10" stroke-width="1"/>
        <line id="선_1125" data-name="선 1125" x1="32.83" y2="29.627" transform="translate(43.497 126.909)" fill="none" stroke="#fff" stroke-miterlimit="10" stroke-width="1"/>
        <line id="선_1126" data-name="선 1126" x1="30.287" y2="27.309" transform="translate(40.299 126.502)" fill="none" stroke="#fff" stroke-miterlimit="10" stroke-width="1"/>
        <line id="선_1127" data-name="선 1127" x1="24.697" y2="22.269" transform="translate(24.803 84.258)" fill="none" stroke="#fff" stroke-miterlimit="10" stroke-width="1"/>
      </g>
      <path id="패스_710" data-name="패스 710" d="M2145.311-1386.541c11,.291,22.333,2.218,31.493,8.282a39.062,39.062,0,0,1,16.716,25.444c.924,5.23.752,10.591,1.445,15.856s2.41,10.674,6.332,14.279a20.768,20.768,0,0,0,10.452,4.748,32.742,32.742,0,0,0,16.2-1.183" transform="translate(-1939.005 1479.414)" fill="none" stroke="#fff" stroke-linecap="round" stroke-miterlimit="10" stroke-width="1"/>
    </g>
  </g>
</svg>
