<svg xmlns="http://www.w3.org/2000/svg" xmlns:xlink="http://www.w3.org/1999/xlink" width="330" height="135.063" viewBox="0 0 330 135.063">
  <defs>
    <clipPath id="clip-path">
      <rect id="사각형_653" data-name="사각형 653" width="330" height="135" transform="translate(0 11)" fill="#fff" stroke="#707070" stroke-width="1"/>
    </clipPath>
  </defs>
  <g id="meteItem03_m" transform="translate(607 814.063)">
    <rect id="사각형_645" data-name="사각형 645" width="330" height="135" transform="translate(-607 -814)" fill="#6464a0"/>
    <g id="마스크_그룹_65" data-name="마스크 그룹 65" transform="translate(-607 -825.063)" clip-path="url(#clip-path)">
      <g id="그룹_1773" data-name="그룹 1773" transform="translate(30.268 21.071)">
        <ellipse id="타원_118" data-name="타원 118" cx="107.581" cy="106.438" rx="107.581" ry="106.438" transform="translate(139 24.909)" fill="none" stroke="#fff" stroke-miterlimit="10" stroke-width="1"/>
        <g id="그룹_1770" data-name="그룹 1770" transform="translate(163.064 28.149)">
          <path id="패스_673" data-name="패스 673" d="M2272.491-1109.725c-1.77,3.057-6.537,3.144-8.569,6.036-1.7,2.413-.49,6.183,2.2,7.436a6.278,6.278,0,0,0,7.705-2.535c1.3-2.182,2.118-5.635,4.667-5.391,1.643.158,2.542,1.924,3.136,3.448q1.033,2.655,2.067,5.307c1.233,3.164,2.166,7.426-.635,9.379-1.487,1.037-3.472.918-5.284.757l-10.8-.964c-3.647,2.649-2.255,8.26-.5,12.386a7,7,0,0,0,2.142,3.2c1.073.745,2.823.688,3.453-.45a8.785,8.785,0,0,0,.458-2.023c.767-2.831,4.987-2.8,7.541-1.314s4.937,3.844,7.894,3.673c3.165-.185,5.4-3.341,5.95-6.431.213-1.195.444-2.673,1.6-3.064a2.9,2.9,0,0,1,2.3.529,20.7,20.7,0,0,1,10.084,16.811,6.984,6.984,0,0,0,.713,3.729,6.035,6.035,0,0,0,3.561,2c4.03,1.141,8.192,2.182,12.368,1.8,4.658-.423,8.951-2.574,13.114-4.688a25.314,25.314,0,0,0,4.2-2.55,107.6,107.6,0,0,0-69.136-54.271,26.111,26.111,0,0,1,.411,2.691A7.515,7.515,0,0,1,2272.491-1109.725Z" transform="translate(-2162.865 1116.914)" fill="none" stroke="#fff" stroke-miterlimit="10" stroke-width="1"/>
          <path id="패스_674" data-name="패스 674" d="M2183.42-1087.5c-.445,4.1-2.153,7.947-3.436,11.873a117.824,117.824,0,0,0-3.426,14.565c-1.665,8.722-3.293,17.96-.165,26.28,1.045,2.782,2.621,5.448,2.84,8.409.148,2-.338,4.015-.038,5.994a8.113,8.113,0,0,0,9.423,6.376,8.021,8.021,0,0,0,5.738-9.763c-.853-2.777-3.176-4.818-4.908-7.161s-2.869-5.693-1.168-8.057c2.252-3.132,7.558-2.141,10.347-4.817,2.819-2.706,1.61-7.557,3.577-10.92,1.989-3.4,6.456-4.244,10.36-4.935s8.391-2.076,9.7-5.78c.585-1.656.387-3.479.714-5.2.388-2.054,1.5-3.9,2.119-5.9s.62-4.433-.9-5.884c-1.932-1.846-5.047-1.141-7.732-1.056s-6.133-1.809-5.245-4.317a4.59,4.59,0,0,1,1.846-2.028,38.716,38.716,0,0,1,23.467-7.025c1.56-3.056-2.039-6.587-5.5-6.666s-6.578,1.864-9.793,3.129a20.257,20.257,0,0,1-14.14.585c-2.475-.9-4.7-2.379-7.206-3.194-.681-.221-1.379-.388-2.079-.546A107.921,107.921,0,0,0,2183.427-1092,22.571,22.571,0,0,1,2183.42-1087.5Z" transform="translate(-2174.619 1118.53)" fill="none" stroke="#fff" stroke-miterlimit="10" stroke-width="1"/>
        </g>
        <path id="패스_675" data-name="패스 675" d="M2268.576-1050.1l9.8,3.169c3.952,1.279,8.789,3.932,8,7.971-.378,1.937-2.014,3.342-3.151,4.963a10.75,10.75,0,0,0-1.45,9.221c.569,1.837,1.654,3.622,1.43,5.53-.356,3.036-3.649,4.656-6.212,6.362-5.141,3.424-8.465,8.926-13.13,12.962s-12.131,6.347-16.872,2.4c-4.62-3.848-3.851-10.888-3.864-16.864a7.156,7.156,0,0,0-.924-4.137c-1.719-2.472-5.5-2.212-8.1-3.759-3.451-2.055-4.055-6.671-4.29-10.651-.3-5.148-.4-10.912,3.127-14.711,1.094-1.18,2.5-2.109,3.3-3.5,1.61-2.774.323-6.327,1.083-9.436,1.145-4.686,7.715-7.034,11.623-4.154a13.785,13.785,0,0,0,2.043,1.492c1.847.894,4.041.083,6.093.191a6.867,6.867,0,0,1,6.3,6.881C2263.236-1053.03,2265.557-1051.077,2268.576-1050.1Z" transform="translate(-2004.243 1151.212)" fill="none" stroke="#fff" stroke-linejoin="round" stroke-width="1"/>
        <g id="그룹_1771" data-name="그룹 1771" transform="translate(261.15)">
          <line id="선_1028" data-name="선 1028" x1="1.716" y2="1.698" transform="translate(5.123)" fill="none" stroke="#fff" stroke-linecap="round" stroke-miterlimit="10" stroke-width="0.5"/>
          <line id="선_1029" data-name="선 1029" x1="1.716" y2="1.698" transform="translate(0 5.069)" fill="none" stroke="#fff" stroke-linecap="round" stroke-miterlimit="10" stroke-width="0.5"/>
          <line id="선_1030" data-name="선 1030" x1="1.716" y1="1.698" transform="translate(5.123 5.069)" fill="none" stroke="#fff" stroke-linecap="round" stroke-miterlimit="10" stroke-width="0.5"/>
          <line id="선_1031" data-name="선 1031" x1="1.716" y1="1.698" fill="none" stroke="#fff" stroke-linecap="round" stroke-miterlimit="10" stroke-width="0.5"/>
        </g>
        <g id="그룹_1772" data-name="그룹 1772" transform="translate(283.784 14.37)">
          <line id="선_1032" data-name="선 1032" x1="1.716" y2="1.698" transform="translate(5.123)" fill="none" stroke="#fff" stroke-linecap="round" stroke-miterlimit="10" stroke-width="0.5"/>
          <line id="선_1033" data-name="선 1033" x1="1.716" y2="1.698" transform="translate(0 5.069)" fill="none" stroke="#fff" stroke-linecap="round" stroke-miterlimit="10" stroke-width="0.5"/>
          <line id="선_1034" data-name="선 1034" x1="1.716" y1="1.698" transform="translate(5.123 5.069)" fill="none" stroke="#fff" stroke-linecap="round" stroke-miterlimit="10" stroke-width="0.5"/>
          <line id="선_1035" data-name="선 1035" x1="1.716" y1="1.698" fill="none" stroke="#fff" stroke-linecap="round" stroke-miterlimit="10" stroke-width="0.5"/>
        </g>
        <path id="패스_676" data-name="패스 676" d="M2027-1133.736l13.353,8.217,10.056-4.3-2.865-1.764a1.635,1.635,0,0,1-.534-2.267,1.675,1.675,0,0,1,2.292-.529l4.826,2.97,6.932-2.961-2.314-1.424a1.636,1.636,0,0,1-.533-2.267,1.675,1.675,0,0,1,2.291-.529l4.275,2.632,7.162-3.059,6.343,2.914-19.366,12.1-4.939,7.855,17.235,11.6,10.419-4.235,3.067,1.887-9.352,8.11-3.217,11.885-3.068-1.888-.767-11.119-18.133-10.167-4.938,7.854-2.406,22.536-5.446-4.341-.393-7.708-4.276-2.631a1.637,1.637,0,0,1-.534-2.268,1.674,1.674,0,0,1,2.291-.528l2.314,1.424-.38-7.46-4.827-2.971a1.636,1.636,0,0,1-.534-2.267,1.676,1.676,0,0,1,2.292-.529l2.865,1.764-.552-10.823-13.352-8.217s-4.941-2.889-2.515-6.747S2027-1133.736,2027-1133.736Z" transform="translate(-1932.953 1148.733)" fill="none" stroke="#fff" stroke-linecap="round" stroke-linejoin="round" stroke-width="1"/>
        <path id="패스_677" data-name="패스 677" d="M2082.218-1094.042c5.272,4.248,11.577,6.466,17.842,8.234a159.592,159.592,0,0,0,48.1,5.954c10.913-.328,23.242-1.24,31.2,7.3a23.828,23.828,0,0,1,5.619,19.468" transform="translate(-1954.491 1109.753) rotate(1)" fill="none" stroke="#fff" stroke-linecap="round" stroke-miterlimit="10" stroke-width="0.5" stroke-dasharray="3"/>
      </g>
    </g>
  </g>
</svg>
